<svg xmlns="http://www.w3.org/2000/svg" width="1080" height="640" viewBox="0 0 1080 640">
<rect width="1080" height="640" fill="#f2efe8" />
<text x="72" y="42" font-size="24" font-family="Georgia" fill="#111827">PDAC Rogue Closure Executable Model</text>
<text x="72" y="64" font-size="13" font-family="Consolas" fill="#4b5563">RAS drive + EGFR/STAT3 bypass + glyco/stromal shielding + immune access.</text>
<line x1="760" y1="38" x2="788" y2="38" stroke="#6b7280" stroke-width="3" />
<text x="798" y="42" font-size="13" font-family="Consolas" fill="#111827">untreated</text>
<line x1="760" y1="58" x2="788" y2="58" stroke="#c2410c" stroke-width="3" />
<text x="798" y="62" font-size="13" font-family="Consolas" fill="#111827">ras_only</text>
<line x1="760" y1="78" x2="788" y2="78" stroke="#2563eb" stroke-width="3" />
<text x="798" y="82" font-size="13" font-family="Consolas" fill="#111827">triple_driver</text>
<line x1="760" y1="98" x2="788" y2="98" stroke="#059669" stroke-width="3" />
<text x="798" y="102" font-size="13" font-family="Consolas" fill="#111827">closure_stack</text>
<line x1="760" y1="118" x2="788" y2="118" stroke="#7c3aed" stroke-width="3" />
<text x="798" y="122" font-size="13" font-family="Consolas" fill="#111827">adaptive_closure</text>
<rect x="72" y="86" width="420" height="210" fill="#fbfaf7" stroke="#111827" />
<text x="86" y="112" font-size="17" font-family="Georgia" fill="#111827">Tumor Burden</text>
<polyline points="72.0,196.0 73.2,195.6 74.3,195.2 75.5,194.8 76.7,194.3 77.8,193.9 79.0,193.5 80.2,193.1 81.3,192.6 82.5,192.2 83.7,191.8 84.8,191.4 86.0,190.9 87.2,190.5 88.3,190.1 89.5,189.6 90.7,189.2 91.8,188.8 93.0,188.3 94.2,187.9 95.3,187.4 96.5,187.0 97.7,186.5 98.8,186.1 100.0,185.6 101.2,185.2 102.3,184.7 103.5,184.3 104.7,183.8 105.8,183.4 107.0,182.9 108.2,182.5 109.3,182.0 110.5,181.5 111.7,181.1 112.8,180.6 114.0,180.1 115.2,179.7 116.3,179.2 117.5,178.7 118.7,178.2 119.8,177.8 121.0,177.3 122.2,176.8 123.3,176.3 124.5,175.9 125.7,175.4 126.8,174.9 128.0,174.4 129.2,173.9 130.3,173.4 131.5,172.9 132.7,172.4 133.8,172.0 135.0,171.5 136.2,171.0 137.3,170.5 138.5,170.0 139.7,169.5 140.8,169.0 142.0,168.5 143.2,168.0 144.3,167.5 145.5,166.9 146.7,166.4 147.8,165.9 149.0,165.4 150.2,164.9 151.3,164.4 152.5,163.9 153.7,163.4 154.8,162.9 156.0,162.4 157.2,161.8 158.3,161.3 159.5,160.8 160.7,160.3 161.8,159.8 163.0,159.3 164.2,158.8 165.3,158.3 166.5,157.8 167.7,157.3 168.8,156.8 170.0,156.3 171.2,155.8 172.3,155.4 173.5,154.9 174.7,154.4 175.8,153.9 177.0,153.4 178.2,152.9 179.3,152.4 180.5,151.9 181.7,151.5 182.8,151.0 184.0,150.5 185.2,150.0 186.3,149.6 187.5,149.1 188.7,148.6 189.8,148.1 191.0,147.7 192.2,147.2 193.3,146.8 194.5,146.3 195.7,145.8 196.8,145.4 198.0,144.9 199.2,144.5 200.3,144.0 201.5,143.6 202.7,143.2 203.8,142.7 205.0,142.3 206.2,141.9 207.3,141.4 208.5,141.0 209.7,140.6 210.8,140.2 212.0,139.8 213.2,139.3 214.3,138.9 215.5,138.5 216.7,138.1 217.8,137.7 219.0,137.3 220.2,136.9 221.3,136.5 222.5,136.1 223.7,135.7 224.8,135.3 226.0,135.0 227.2,134.6 228.3,134.2 229.5,133.8 230.7,133.4 231.8,133.1 233.0,132.7 234.2,132.3 235.3,132.0 236.5,131.6 237.7,131.2 238.8,130.9 240.0,130.5 241.2,130.2 242.3,129.8 243.5,129.5 244.7,129.1 245.8,128.8 247.0,128.5 248.2,128.1 249.3,127.8 250.5,127.4 251.7,127.1 252.8,126.8 254.0,126.5 255.2,126.1 256.3,125.8 257.5,125.5 258.7,125.2 259.8,124.9 261.0,124.5 262.2,124.2 263.3,123.9 264.5,123.6 265.7,123.3 266.8,123.0 268.0,122.7 269.2,122.4 270.3,122.1 271.5,121.8 272.7,121.5 273.8,121.2 275.0,120.9 276.2,120.6 277.3,120.4 278.5,120.1 279.7,119.8 280.8,119.5 282.0,119.2 283.2,119.0 284.3,118.7 285.5,118.4 286.7,118.2 287.8,117.9 289.0,117.6 290.2,117.4 291.3,117.1 292.5,116.8 293.7,116.6 294.8,116.3 296.0,116.1 297.2,115.8 298.3,115.6 299.5,115.3 300.7,115.1 301.8,114.8 303.0,114.6 304.2,114.3 305.3,114.1 306.5,113.9 307.7,113.7 308.8,113.4 310.0,113.2 311.2,113.0 312.3,112.8 313.5,112.6 314.7,112.4 315.8,112.2 317.0,112.0 318.2,111.8 319.3,111.6 320.5,111.4 321.7,111.2 322.8,111.0 324.0,110.8 325.2,110.6 326.3,110.4 327.5,110.3 328.7,110.1 329.8,109.9 331.0,109.8 332.2,109.6 333.3,109.4 334.5,109.3 335.7,109.1 336.8,109.0 338.0,108.8 339.2,108.6 340.3,108.5 341.5,108.4 342.7,108.2 343.8,108.1 345.0,107.9 346.2,107.8 347.3,107.7 348.5,107.5 349.7,107.4 350.8,107.3 352.0,107.1 353.2,107.0 354.3,106.9 355.5,106.8 356.7,106.6 357.8,106.5 359.0,106.4 360.2,106.3 361.3,106.2 362.5,106.1 363.7,106.0 364.8,105.9 366.0,105.8 367.2,105.7 368.3,105.5 369.5,105.4 370.7,105.4 371.8,105.3 373.0,105.2 374.2,105.1 375.3,105.0 376.5,104.9 377.7,104.8 378.8,104.7 380.0,104.6 381.2,104.5 382.3,104.4 383.5,104.4 384.7,104.3 385.8,104.2 387.0,104.1 388.2,104.0 389.3,104.0 390.5,103.9 391.7,103.8 392.8,103.8 394.0,103.7 395.2,103.6 396.3,103.5 397.5,103.5 398.7,103.4 399.8,103.3 401.0,103.3 402.2,103.2 403.3,103.1 404.5,103.1 405.7,103.0 406.8,103.0 408.0,102.9 409.2,102.9 410.3,102.8 411.5,102.7 412.7,102.7 413.8,102.6 415.0,102.6 416.2,102.5 417.3,102.5 418.5,102.4 419.7,102.4 420.8,102.3 422.0,102.3 423.2,102.2 424.3,102.2 425.5,102.1 426.7,102.1 427.8,102.1 429.0,102.0 430.2,102.0 431.3,101.9 432.5,101.9 433.7,101.8 434.8,101.8 436.0,101.8 437.2,101.7 438.3,101.7 439.5,101.6 440.7,101.6 441.8,101.6 443.0,101.5 444.2,101.5 445.3,101.5 446.5,101.4 447.7,101.4 448.8,101.4 450.0,101.3 451.2,101.3 452.3,101.3 453.5,101.2 454.7,101.2 455.8,101.2 457.0,101.2 458.2,101.1 459.3,101.1 460.5,101.1 461.7,101.0 462.8,101.0 464.0,101.0 465.2,101.0 466.3,100.9 467.5,100.9 468.7,100.9 469.8,100.9 471.0,100.8 472.2,100.8 473.3,100.8 474.5,100.8 475.7,100.8 476.8,100.7 478.0,100.7 479.2,100.7 480.3,100.7 481.5,100.7 482.7,100.6 483.8,100.6 485.0,100.6 486.2,100.6 487.3,100.6 488.5,100.5 489.7,100.5 490.8,100.5 492.0,100.5" fill="none" stroke="#6b7280" stroke-width="2.0" />
<polyline points="72.0,196.0 73.2,196.4 74.3,196.7 75.5,197.1 76.7,197.5 77.8,197.8 79.0,198.2 80.2,198.5 81.3,198.9 82.5,199.3 83.7,199.6 84.8,200.0 86.0,200.3 87.2,200.7 88.3,201.0 89.5,201.4 90.7,201.7 91.8,202.1 93.0,202.4 94.2,202.8 95.3,203.1 96.5,203.4 97.7,203.8 98.8,204.1 100.0,204.4 101.2,204.8 102.3,205.1 103.5,205.4 104.7,205.7 105.8,206.0 107.0,206.3 108.2,206.6 109.3,206.9 110.5,207.2 111.7,207.5 112.8,207.8 114.0,208.1 115.2,208.4 116.3,208.6 117.5,208.9 118.7,209.2 119.8,209.4 121.0,209.7 122.2,209.9 123.3,210.2 124.5,210.4 125.7,210.7 126.8,210.9 128.0,211.2 129.2,211.4 130.3,211.6 131.5,211.8 132.7,212.0 133.8,212.2 135.0,212.4 136.2,212.6 137.3,212.8 138.5,212.9 139.7,213.1 140.8,213.3 142.0,213.4 143.2,213.6 144.3,213.7 145.5,213.8 146.7,214.0 147.8,214.1 149.0,214.2 150.2,214.3 151.3,214.4 152.5,214.5 153.7,214.6 154.8,214.7 156.0,214.8 157.2,214.9 158.3,215.0 159.5,215.0 160.7,215.1 161.8,215.2 163.0,215.2 164.2,215.3 165.3,215.3 166.5,215.4 167.7,215.4 168.8,215.5 170.0,215.5 171.2,215.5 172.3,215.5 173.5,215.6 174.7,215.6 175.8,215.6 177.0,215.6 178.2,215.6 179.3,215.6 180.5,215.6 181.7,215.6 182.8,215.6 184.0,215.6 185.2,215.6 186.3,215.5 187.5,215.5 188.7,215.5 189.8,215.4 191.0,215.4 192.2,215.4 193.3,215.3 194.5,215.3 195.7,215.2 196.8,215.2 198.0,215.1 199.2,215.1 200.3,215.0 201.5,215.0 202.7,214.9 203.8,214.9 205.0,214.8 206.2,214.7 207.3,214.7 208.5,214.6 209.7,214.5 210.8,214.4 212.0,214.4 213.2,214.3 214.3,214.2 215.5,214.1 216.7,214.0 217.8,214.0 219.0,213.9 220.2,213.8 221.3,213.7 222.5,213.6 223.7,213.5 224.8,213.4 226.0,213.3 227.2,213.2 228.3,213.1 229.5,213.0 230.7,212.9 231.8,212.8 233.0,212.7 234.2,212.6 235.3,212.5 236.5,212.3 237.7,212.2 238.8,212.1 240.0,212.0 241.2,211.9 242.3,211.8 243.5,211.6 244.7,211.5 245.8,211.4 247.0,211.3 248.2,211.1 249.3,211.0 250.5,210.9 251.7,210.7 252.8,210.6 254.0,210.5 255.2,210.3 256.3,210.2 257.5,210.0 258.7,209.9 259.8,209.8 261.0,209.6 262.2,209.5 263.3,209.3 264.5,209.2 265.7,209.0 266.8,208.9 268.0,208.7 269.2,208.6 270.3,208.4 271.5,208.3 272.7,208.1 273.8,208.0 275.0,207.8 276.2,207.6 277.3,207.5 278.5,207.3 279.7,207.2 280.8,207.0 282.0,206.8 283.2,206.7 284.3,206.5 285.5,206.3 286.7,206.2 287.8,206.0 289.0,205.8 290.2,205.7 291.3,205.5 292.5,205.3 293.7,205.1 294.8,205.0 296.0,204.8 297.2,204.6 298.3,204.4 299.5,204.3 300.7,204.1 301.8,203.9 303.0,203.7 304.2,203.5 305.3,203.3 306.5,203.2 307.7,203.0 308.8,202.8 310.0,202.6 311.2,202.4 312.3,202.2 313.5,202.0 314.7,201.9 315.8,201.7 317.0,201.5 318.2,201.3 319.3,201.1 320.5,200.9 321.7,200.7 322.8,200.5 324.0,200.3 325.2,200.1 326.3,199.9 327.5,199.7 328.7,199.5 329.8,199.3 331.0,199.1 332.2,198.9 333.3,198.7 334.5,198.5 335.7,198.3 336.8,198.1 338.0,197.9 339.2,197.7 340.3,197.5 341.5,197.3 342.7,197.1 343.8,196.9 345.0,196.7 346.2,196.5 347.3,196.3 348.5,196.1 349.7,195.9 350.8,195.7 352.0,195.5 353.2,195.3 354.3,195.1 355.5,194.9 356.7,194.7 357.8,194.4 359.0,194.2 360.2,194.0 361.3,193.8 362.5,193.6 363.7,193.4 364.8,193.2 366.0,193.0 367.2,192.8 368.3,192.6 369.5,192.3 370.7,192.1 371.8,191.9 373.0,191.7 374.2,191.5 375.3,191.3 376.5,191.1 377.7,190.9 378.8,190.7 380.0,190.5 381.2,190.3 382.3,190.1 383.5,189.9 384.7,189.7 385.8,189.5 387.0,189.3 388.2,189.1 389.3,188.8 390.5,188.6 391.7,188.4 392.8,188.2 394.0,188.0 395.2,187.8 396.3,187.6 397.5,187.4 398.7,187.2 399.8,187.0 401.0,186.8 402.2,186.6 403.3,186.5 404.5,186.3 405.7,186.1 406.8,185.9 408.0,185.7 409.2,185.5 410.3,185.3 411.5,185.1 412.7,184.9 413.8,184.7 415.0,184.5 416.2,184.3 417.3,184.1 418.5,183.9 419.7,183.7 420.8,183.6 422.0,183.4 423.2,183.2 424.3,183.0 425.5,182.8 426.7,182.6 427.8,182.4 429.0,182.3 430.2,182.1 431.3,181.9 432.5,181.7 433.7,181.5 434.8,181.3 436.0,181.2 437.2,181.0 438.3,180.8 439.5,180.6 440.7,180.4 441.8,180.3 443.0,180.1 444.2,179.9 445.3,179.7 446.5,179.6 447.7,179.4 448.8,179.2 450.0,179.0 451.2,178.9 452.3,178.7 453.5,178.5 454.7,178.4 455.8,178.2 457.0,178.0 458.2,177.9 459.3,177.7 460.5,177.5 461.7,177.4 462.8,177.2 464.0,177.0 465.2,176.9 466.3,176.7 467.5,176.5 468.7,176.4 469.8,176.2 471.0,176.1 472.2,175.9 473.3,175.7 474.5,175.6 475.7,175.4 476.8,175.3 478.0,175.1 479.2,175.0 480.3,174.8 481.5,174.7 482.7,174.5 483.8,174.4 485.0,174.2 486.2,174.1 487.3,173.9 488.5,173.8 489.7,173.6 490.8,173.5 492.0,173.3" fill="none" stroke="#c2410c" stroke-width="2.0" />
<polyline points="72.0,196.0 73.2,196.8 74.3,197.5 75.5,198.3 76.7,199.1 77.8,199.9 79.0,200.6 80.2,201.4 81.3,202.2 82.5,203.0 83.7,203.8 84.8,204.6 86.0,205.3 87.2,206.1 88.3,206.9 89.5,207.7 90.7,208.4 91.8,209.2 93.0,210.0 94.2,210.7 95.3,211.4 96.5,212.1 97.7,212.8 98.8,213.5 100.0,214.1 101.2,214.8 102.3,215.4 103.5,216.0 104.7,216.6 105.8,217.2 107.0,217.8 108.2,218.4 109.3,218.9 110.5,219.5 111.7,220.0 112.8,220.5 114.0,221.0 115.2,221.5 116.3,222.0 117.5,222.5 118.7,223.0 119.8,223.4 121.0,223.9 122.2,224.3 123.3,224.7 124.5,225.2 125.7,225.6 126.8,226.0 128.0,226.4 129.2,226.8 130.3,227.2 131.5,227.6 132.7,228.0 133.8,228.3 135.0,228.7 136.2,229.0 137.3,229.4 138.5,229.7 139.7,230.1 140.8,230.4 142.0,230.7 143.2,231.0 144.3,231.4 145.5,231.7 146.7,232.0 147.8,232.3 149.0,232.6 150.2,232.9 151.3,233.2 152.5,233.4 153.7,233.7 154.8,234.0 156.0,234.3 157.2,234.5 158.3,234.8 159.5,235.0 160.7,235.3 161.8,235.5 163.0,235.8 164.2,236.0 165.3,236.3 166.5,236.5 167.7,236.7 168.8,237.0 170.0,237.2 171.2,237.4 172.3,237.6 173.5,237.8 174.7,238.0 175.8,238.3 177.0,238.5 178.2,238.7 179.3,238.9 180.5,239.1 181.7,239.3 182.8,239.5 184.0,239.6 185.2,239.8 186.3,240.0 187.5,240.2 188.7,240.4 189.8,240.6 191.0,240.7 192.2,240.9 193.3,241.1 194.5,241.3 195.7,241.4 196.8,241.6 198.0,241.8 199.2,241.9 200.3,242.1 201.5,242.3 202.7,242.4 203.8,242.6 205.0,242.7 206.2,242.9 207.3,243.0 208.5,243.2 209.7,243.3 210.8,243.5 212.0,243.6 213.2,243.8 214.3,243.9 215.5,244.0 216.7,244.2 217.8,244.3 219.0,244.4 220.2,244.6 221.3,244.7 222.5,244.8 223.7,245.0 224.8,245.1 226.0,245.2 227.2,245.4 228.3,245.5 229.5,245.6 230.7,245.7 231.8,245.9 233.0,246.0 234.2,246.1 235.3,246.2 236.5,246.3 237.7,246.5 238.8,246.6 240.0,246.7 241.2,246.8 242.3,246.9 243.5,247.0 244.7,247.1 245.8,247.3 247.0,247.4 248.2,247.5 249.3,247.6 250.5,247.7 251.7,247.8 252.8,247.9 254.0,248.0 255.2,248.1 256.3,248.2 257.5,248.3 258.7,248.4 259.8,248.5 261.0,248.6 262.2,248.7 263.3,248.8 264.5,248.9 265.7,249.0 266.8,249.1 268.0,249.2 269.2,249.3 270.3,249.4 271.5,249.5 272.7,249.6 273.8,249.7 275.0,249.8 276.2,249.9 277.3,250.0 278.5,250.1 279.7,250.1 280.8,250.2 282.0,250.3 283.2,250.4 284.3,250.5 285.5,250.6 286.7,250.7 287.8,250.8 289.0,250.9 290.2,250.9 291.3,251.0 292.5,251.1 293.7,251.2 294.8,251.3 296.0,251.4 297.2,251.5 298.3,251.5 299.5,251.6 300.7,251.7 301.8,251.8 303.0,251.9 304.2,252.0 305.3,252.0 306.5,252.1 307.7,252.2 308.8,252.3 310.0,252.4 311.2,252.4 312.3,252.5 313.5,252.6 314.7,252.7 315.8,252.8 317.0,252.8 318.2,252.9 319.3,253.0 320.5,253.1 321.7,253.1 322.8,253.2 324.0,253.3 325.2,253.4 326.3,253.4 327.5,253.5 328.7,253.6 329.8,253.7 331.0,253.7 332.2,253.8 333.3,253.9 334.5,254.0 335.7,254.0 336.8,254.1 338.0,254.2 339.2,254.3 340.3,254.3 341.5,254.4 342.7,254.5 343.8,254.6 345.0,254.6 346.2,254.7 347.3,254.8 348.5,254.8 349.7,254.9 350.8,255.0 352.0,255.1 353.2,255.1 354.3,255.2 355.5,255.3 356.7,255.3 357.8,255.4 359.0,255.5 360.2,255.6 361.3,255.6 362.5,255.7 363.7,255.8 364.8,255.8 366.0,255.9 367.2,256.0 368.3,256.0 369.5,256.1 370.7,256.2 371.8,256.2 373.0,256.3 374.2,256.4 375.3,256.5 376.5,256.5 377.7,256.6 378.8,256.7 380.0,256.7 381.2,256.8 382.3,256.9 383.5,256.9 384.7,257.0 385.8,257.1 387.0,257.1 388.2,257.2 389.3,257.3 390.5,257.3 391.7,257.4 392.8,257.5 394.0,257.5 395.2,257.6 396.3,257.7 397.5,257.7 398.7,257.8 399.8,257.9 401.0,257.9 402.2,258.0 403.3,258.1 404.5,258.1 405.7,258.2 406.8,258.3 408.0,258.3 409.2,258.4 410.3,258.5 411.5,258.5 412.7,258.6 413.8,258.7 415.0,258.7 416.2,258.8 417.3,258.8 418.5,258.9 419.7,259.0 420.8,259.0 422.0,259.1 423.2,259.2 424.3,259.2 425.5,259.3 426.7,259.4 427.8,259.4 429.0,259.5 430.2,259.6 431.3,259.6 432.5,259.7 433.7,259.7 434.8,259.8 436.0,259.9 437.2,259.9 438.3,260.0 439.5,260.1 440.7,260.1 441.8,260.2 443.0,260.3 444.2,260.3 445.3,260.4 446.5,260.5 447.7,260.5 448.8,260.6 450.0,260.6 451.2,260.7 452.3,260.8 453.5,260.8 454.7,260.9 455.8,261.0 457.0,261.0 458.2,261.1 459.3,261.1 460.5,261.2 461.7,261.3 462.8,261.3 464.0,261.4 465.2,261.5 466.3,261.5 467.5,261.6 468.7,261.6 469.8,261.7 471.0,261.8 472.2,261.8 473.3,261.9 474.5,262.0 475.7,262.0 476.8,262.1 478.0,262.1 479.2,262.2 480.3,262.3 481.5,262.3 482.7,262.4 483.8,262.5 485.0,262.5 486.2,262.6 487.3,262.6 488.5,262.7 489.7,262.8 490.8,262.8 492.0,262.9" fill="none" stroke="#2563eb" stroke-width="2.0" />
<polyline points="72.0,196.0 73.2,196.7 74.3,197.4 75.5,198.0 76.7,198.7 77.8,199.5 79.0,200.2 80.2,200.9 81.3,201.6 82.5,202.4 83.7,203.1 84.8,203.8 86.0,204.6 87.2,205.3 88.3,206.1 89.5,206.9 90.7,207.6 91.8,208.4 93.0,209.1 94.2,209.9 95.3,210.6 96.5,211.4 97.7,212.1 98.8,212.8 100.0,213.5 101.2,214.2 102.3,214.9 103.5,215.6 104.7,216.3 105.8,216.9 107.0,217.6 108.2,218.2 109.3,218.8 110.5,219.5 111.7,220.1 112.8,220.7 114.0,221.3 115.2,221.9 116.3,222.5 117.5,223.0 118.7,223.6 119.8,224.2 121.0,224.7 122.2,225.3 123.3,225.8 124.5,226.3 125.7,226.9 126.8,227.4 128.0,227.9 129.2,228.4 130.3,228.9 131.5,229.4 132.7,229.9 133.8,230.4 135.0,230.9 136.2,231.4 137.3,231.8 138.5,232.3 139.7,232.8 140.8,233.2 142.0,233.7 143.2,234.1 144.3,234.6 145.5,235.0 146.7,235.4 147.8,235.9 149.0,236.3 150.2,236.7 151.3,237.2 152.5,237.6 153.7,238.0 154.8,238.4 156.0,238.8 157.2,239.2 158.3,239.6 159.5,240.0 160.7,240.4 161.8,240.8 163.0,241.2 164.2,241.5 165.3,241.9 166.5,242.3 167.7,242.7 168.8,243.0 170.0,243.4 171.2,243.8 172.3,244.1 173.5,244.5 174.7,244.8 175.8,245.2 177.0,245.5 178.2,245.9 179.3,246.2 180.5,246.6 181.7,246.9 182.8,247.2 184.0,247.6 185.2,247.9 186.3,248.2 187.5,248.6 188.7,248.9 189.8,249.2 191.0,249.5 192.2,249.8 193.3,250.2 194.5,250.5 195.7,250.8 196.8,251.1 198.0,251.4 199.2,251.7 200.3,252.0 201.5,252.3 202.7,252.6 203.8,252.9 205.0,253.2 206.2,253.5 207.3,253.7 208.5,254.0 209.7,254.3 210.8,254.6 212.0,254.9 213.2,255.1 214.3,255.4 215.5,255.7 216.7,256.0 217.8,256.2 219.0,256.5 220.2,256.7 221.3,257.0 222.5,257.3 223.7,257.5 224.8,257.8 226.0,258.0 227.2,258.3 228.3,258.5 229.5,258.8 230.7,259.0 231.8,259.3 233.0,259.5 234.2,259.8 235.3,260.0 236.5,260.2 237.7,260.5 238.8,260.7 240.0,260.9 241.2,261.2 242.3,261.4 243.5,261.6 244.7,261.8 245.8,262.1 247.0,262.3 248.2,262.5 249.3,262.7 250.5,262.9 251.7,263.2 252.8,263.4 254.0,263.6 255.2,263.8 256.3,264.0 257.5,264.2 258.7,264.4 259.8,264.6 261.0,264.8 262.2,265.0 263.3,265.2 264.5,265.4 265.7,265.6 266.8,265.8 268.0,266.0 269.2,266.2 270.3,266.4 271.5,266.5 272.7,266.7 273.8,266.9 275.0,267.1 276.2,267.3 277.3,267.5 278.5,267.6 279.7,267.8 280.8,268.0 282.0,268.2 283.2,268.3 284.3,268.5 285.5,268.7 286.7,268.8 287.8,269.0 289.0,269.2 290.2,269.3 291.3,269.5 292.5,269.6 293.7,269.8 294.8,269.9 296.0,270.1 297.2,270.3 298.3,270.4 299.5,270.6 300.7,270.7 301.8,270.9 303.0,271.0 304.2,271.1 305.3,271.3 306.5,271.4 307.7,271.6 308.8,271.7 310.0,271.8 311.2,272.0 312.3,272.1 313.5,272.2 314.7,272.4 315.8,272.5 317.0,272.6 318.2,272.8 319.3,272.9 320.5,273.0 321.7,273.1 322.8,273.3 324.0,273.4 325.2,273.5 326.3,273.6 327.5,273.7 328.7,273.9 329.8,274.0 331.0,274.1 332.2,274.2 333.3,274.3 334.5,274.4 335.7,274.5 336.8,274.6 338.0,274.8 339.2,274.9 340.3,275.0 341.5,275.1 342.7,275.2 343.8,275.3 345.0,275.4 346.2,275.5 347.3,275.6 348.5,275.7 349.7,275.8 350.8,275.9 352.0,275.9 353.2,276.0 354.3,276.1 355.5,276.2 356.7,276.3 357.8,276.4 359.0,276.5 360.2,276.6 361.3,276.7 362.5,276.7 363.7,276.8 364.8,276.9 366.0,277.0 367.2,277.1 368.3,277.1 369.5,277.2 370.7,277.3 371.8,277.4 373.0,277.5 374.2,277.5 375.3,277.6 376.5,277.7 377.7,277.7 378.8,277.8 380.0,277.9 381.2,278.0 382.3,278.0 383.5,278.1 384.7,278.2 385.8,278.2 387.0,278.3 388.2,278.3 389.3,278.4 390.5,278.5 391.7,278.5 392.8,278.6 394.0,278.7 395.2,278.7 396.3,278.8 397.5,278.8 398.7,278.9 399.8,278.9 401.0,279.0 402.2,279.0 403.3,279.1 404.5,279.2 405.7,279.2 406.8,279.3 408.0,279.3 409.2,279.4 410.3,279.4 411.5,279.5 412.7,279.5 413.8,279.6 415.0,279.6 416.2,279.6 417.3,279.7 418.5,279.7 419.7,279.8 420.8,279.8 422.0,279.9 423.2,279.9 424.3,279.9 425.5,280.0 426.7,280.0 427.8,280.1 429.0,280.1 430.2,280.1 431.3,280.2 432.5,280.2 433.7,280.3 434.8,280.3 436.0,280.3 437.2,280.4 438.3,280.4 439.5,280.4 440.7,280.5 441.8,280.5 443.0,280.5 444.2,280.6 445.3,280.6 446.5,280.6 447.7,280.7 448.8,280.7 450.0,280.7 451.2,280.7 452.3,280.8 453.5,280.8 454.7,280.8 455.8,280.9 457.0,280.9 458.2,280.9 459.3,280.9 460.5,281.0 461.7,281.0 462.8,281.0 464.0,281.0 465.2,281.1 466.3,281.1 467.5,281.1 468.7,281.1 469.8,281.2 471.0,281.2 472.2,281.2 473.3,281.2 474.5,281.2 475.7,281.3 476.8,281.3 478.0,281.3 479.2,281.3 480.3,281.3 481.5,281.4 482.7,281.4 483.8,281.4 485.0,281.4 486.2,281.4 487.3,281.4 488.5,281.5 489.7,281.5 490.8,281.5 492.0,281.5" fill="none" stroke="#059669" stroke-width="2.0" />
<polyline points="72.0,196.0 73.2,196.0 74.3,195.9 75.5,195.9 76.7,195.9 77.8,195.9 79.0,195.9 80.2,195.8 81.3,195.8 82.5,195.8 83.7,195.9 84.8,195.9 86.0,195.9 87.2,195.9 88.3,195.9 89.5,195.9 90.7,196.0 91.8,196.0 93.0,196.0 94.2,196.1 95.3,196.1 96.5,196.2 97.7,196.2 98.8,196.3 100.0,196.3 101.2,196.4 102.3,196.4 103.5,196.5 104.7,196.5 105.8,196.6 107.0,196.7 108.2,196.7 109.3,196.8 110.5,196.9 111.7,196.9 112.8,197.0 114.0,197.1 115.2,197.1 116.3,197.2 117.5,197.3 118.7,197.4 119.8,197.4 121.0,197.5 122.2,197.5 123.3,197.4 124.5,197.4 125.7,197.3 126.8,197.3 128.0,197.2 129.2,197.2 130.3,197.1 131.5,197.1 132.7,197.0 133.8,197.0 135.0,197.0 136.2,196.9 137.3,196.9 138.5,196.8 139.7,196.8 140.8,196.7 142.0,196.7 143.2,196.6 144.3,196.6 145.5,196.5 146.7,196.5 147.8,196.4 149.0,196.4 150.2,196.4 151.3,196.3 152.5,196.3 153.7,196.2 154.8,196.2 156.0,196.1 157.2,196.1 158.3,196.1 159.5,196.0 160.7,196.0 161.8,195.9 163.0,195.9 164.2,195.9 165.3,195.8 166.5,195.8 167.7,195.7 168.8,195.7 170.0,195.7 171.2,195.8 172.3,195.9 173.5,196.0 174.7,196.1 175.8,196.3 177.0,196.4 178.2,196.5 179.3,196.6 180.5,196.7 181.7,196.9 182.8,197.0 184.0,197.1 185.2,197.2 186.3,197.3 187.5,197.5 188.7,197.6 189.8,197.7 191.0,197.8 192.2,198.0 193.3,198.1 194.5,198.2 195.7,198.3 196.8,198.4 198.0,198.6 199.2,198.7 200.3,198.8 201.5,198.9 202.7,199.0 203.8,199.2 205.0,199.3 206.2,199.4 207.3,199.5 208.5,199.6 209.7,199.7 210.8,199.9 212.0,200.0 213.2,200.1 214.3,200.2 215.5,200.3 216.7,200.4 217.8,200.5 219.0,200.6 220.2,200.6 221.3,200.6 222.5,200.6 223.7,200.5 224.8,200.5 226.0,200.5 227.2,200.5 228.3,200.4 229.5,200.4 230.7,200.4 231.8,200.3 233.0,200.3 234.2,200.2 235.3,200.2 236.5,200.2 237.7,200.1 238.8,200.1 240.0,200.0 241.2,200.0 242.3,200.0 243.5,199.9 244.7,199.9 245.8,199.8 247.0,199.8 248.2,199.7 249.3,199.7 250.5,199.6 251.7,199.6 252.8,199.5 254.0,199.5 255.2,199.4 256.3,199.4 257.5,199.4 258.7,199.3 259.8,199.3 261.0,199.2 262.2,199.2 263.3,199.1 264.5,199.1 265.7,199.0 266.8,199.0 268.0,198.9 269.2,199.0 270.3,199.1 271.5,199.2 272.7,199.3 273.8,199.4 275.0,199.5 276.2,199.7 277.3,199.8 278.5,199.9 279.7,200.0 280.8,200.1 282.0,200.2 283.2,200.3 284.3,200.4 285.5,200.5 286.7,200.6 287.8,200.7 289.0,200.9 290.2,201.0 291.3,201.1 292.5,201.2 293.7,201.3 294.8,201.4 296.0,201.5 297.2,201.6 298.3,201.7 299.5,201.8 300.7,201.9 301.8,202.0 303.0,202.1 304.2,202.2 305.3,202.3 306.5,202.4 307.7,202.6 308.8,202.6 310.0,202.7 311.2,202.8 312.3,202.9 313.5,203.0 314.7,203.1 315.8,203.2 317.0,203.3 318.2,203.3 319.3,203.2 320.5,203.2 321.7,203.1 322.8,203.1 324.0,203.0 325.2,203.0 326.3,202.9 327.5,202.9 328.7,202.8 329.8,202.8 331.0,202.7 332.2,202.7 333.3,202.6 334.5,202.6 335.7,202.5 336.8,202.5 338.0,202.4 339.2,202.3 340.3,202.3 341.5,202.2 342.7,202.2 343.8,202.1 345.0,202.0 346.2,202.0 347.3,201.9 348.5,201.8 349.7,201.8 350.8,201.7 352.0,201.6 353.2,201.6 354.3,201.5 355.5,201.5 356.7,201.4 357.8,201.3 359.0,201.3 360.2,201.2 361.3,201.1 362.5,201.1 363.7,201.0 364.8,200.9 366.0,200.9 367.2,201.0 368.3,201.0 369.5,201.1 370.7,201.2 371.8,201.3 373.0,201.4 374.2,201.5 375.3,201.6 376.5,201.7 377.7,201.8 378.8,201.9 380.0,202.0 381.2,202.1 382.3,202.2 383.5,202.2 384.7,202.3 385.8,202.4 387.0,202.5 388.2,202.6 389.3,202.7 390.5,202.8 391.7,202.9 392.8,203.0 394.0,203.1 395.2,203.2 396.3,203.3 397.5,203.3 398.7,203.4 399.8,203.5 401.0,203.6 402.2,203.7 403.3,203.8 404.5,203.8 405.7,203.9 406.8,204.0 408.0,204.1 409.2,204.1 410.3,204.2 411.5,204.3 412.7,204.4 413.8,204.4 415.0,204.5 416.2,204.5 417.3,204.4 418.5,204.3 419.7,204.3 420.8,204.2 422.0,204.1 423.2,204.1 424.3,204.0 425.5,204.0 426.7,203.9 427.8,203.8 429.0,203.7 430.2,203.7 431.3,203.6 432.5,203.5 433.7,203.5 434.8,203.4 436.0,203.3 437.2,203.3 438.3,203.2 439.5,203.1 440.7,203.0 441.8,203.0 443.0,202.9 444.2,202.8 445.3,202.7 446.5,202.7 447.7,202.6 448.8,202.5 450.0,202.5 451.2,202.4 452.3,202.3 453.5,202.2 454.7,202.2 455.8,202.1 457.0,202.0 458.2,201.9 459.3,201.9 460.5,201.8 461.7,201.7 462.8,201.6 464.0,201.6 465.2,201.7 466.3,201.7 467.5,201.8 468.7,201.9 469.8,202.0 471.0,202.1 472.2,202.1 473.3,202.2 474.5,202.3 475.7,202.4 476.8,202.5 478.0,202.6 479.2,202.7 480.3,202.7 481.5,202.8 482.7,202.9 483.8,203.0 485.0,203.1 486.2,203.2 487.3,203.3 488.5,203.3 489.7,203.4 490.8,203.5 492.0,203.6" fill="none" stroke="#7c3aed" stroke-width="2.0" />
<rect x="592" y="86" width="420" height="210" fill="#fbfaf7" stroke="#111827" />
<text x="606" y="112" font-size="17" font-family="Georgia" fill="#111827">Rogue Closure</text>
<polyline points="592.0,181.3 593.2,180.8 594.3,180.4 595.5,179.9 596.7,179.5 597.8,179.0 599.0,178.5 600.2,178.1 601.3,177.6 602.5,177.1 603.7,176.7 604.8,176.2 606.0,175.7 607.2,175.3 608.3,174.8 609.5,174.3 610.7,173.8 611.8,173.3 613.0,172.8 614.2,172.3 615.3,171.8 616.5,171.3 617.7,170.8 618.8,170.3 620.0,169.8 621.2,169.3 622.3,168.8 623.5,168.3 624.7,167.7 625.8,167.2 627.0,166.7 628.2,166.2 629.3,165.6 630.5,165.1 631.7,164.6 632.8,164.0 634.0,163.5 635.2,162.9 636.3,162.4 637.5,161.8 638.7,161.3 639.8,160.7 641.0,160.2 642.2,159.6 643.3,159.0 644.5,158.4 645.7,157.9 646.8,157.3 648.0,156.7 649.2,156.1 650.3,155.5 651.5,155.0 652.7,154.4 653.8,153.8 655.0,153.2 656.2,152.6 657.3,152.0 658.5,151.4 659.7,150.8 660.8,150.1 662.0,149.5 663.2,148.9 664.3,148.3 665.5,147.7 666.7,147.0 667.8,146.4 669.0,145.8 670.2,145.1 671.3,144.5 672.5,144.1 673.7,143.7 674.8,143.2 676.0,142.8 677.2,142.4 678.3,141.9 679.5,141.5 680.7,141.1 681.8,140.6 683.0,140.2 684.2,139.8 685.3,139.3 686.5,138.9 687.7,138.5 688.8,138.0 690.0,137.6 691.2,137.1 692.3,136.7 693.5,136.3 694.7,135.8 695.8,135.4 697.0,134.9 698.2,134.5 699.3,134.1 700.5,133.6 701.7,133.2 702.8,132.7 704.0,132.3 705.2,131.9 706.3,131.4 707.5,131.0 708.7,130.7 709.8,130.4 711.0,130.1 712.2,129.8 713.3,129.5 714.5,129.2 715.7,128.9 716.8,128.6 718.0,128.3 719.2,128.0 720.3,127.7 721.5,127.4 722.7,127.1 723.8,126.9 725.0,126.6 726.2,126.3 727.3,126.0 728.5,125.7 729.7,125.4 730.8,125.1 732.0,124.9 733.2,124.6 734.3,124.3 735.5,124.0 736.7,123.8 737.8,123.5 739.0,123.2 740.2,122.9 741.3,122.7 742.5,122.4 743.7,122.1 744.8,121.9 746.0,121.6 747.2,121.3 748.3,121.1 749.5,120.8 750.7,120.6 751.8,120.3 753.0,120.0 754.2,119.8 755.3,119.5 756.5,119.3 757.7,119.0 758.8,118.8 760.0,118.5 761.2,118.3 762.3,118.0 763.5,117.8 764.7,117.6 765.8,117.3 767.0,117.1 768.2,116.8 769.3,116.6 770.5,116.4 771.7,116.1 772.8,115.9 774.0,115.7 775.2,115.4 776.3,115.2 777.5,115.0 778.7,114.7 779.8,114.5 781.0,114.3 782.2,114.1 783.3,113.8 784.5,113.6 785.7,113.4 786.8,113.2 788.0,113.0 789.2,112.7 790.3,112.5 791.5,112.3 792.7,112.1 793.8,111.9 795.0,111.7 796.2,111.5 797.3,111.3 798.5,111.0 799.7,110.8 800.8,110.6 802.0,110.4 803.2,110.2 804.3,110.0 805.5,109.8 806.7,109.6 807.8,109.4 809.0,109.2 810.2,109.0 811.3,108.8 812.5,108.6 813.7,108.5 814.8,108.3 816.0,108.1 817.2,107.9 818.3,107.7 819.5,107.5 820.7,107.4 821.8,107.3 823.0,107.1 824.2,107.0 825.3,106.9 826.5,106.8 827.7,106.7 828.8,106.6 830.0,106.5 831.2,106.4 832.3,106.2 833.5,106.1 834.7,106.0 835.8,105.9 837.0,105.8 838.2,105.7 839.3,105.6 840.5,105.6 841.7,105.5 842.8,105.4 844.0,105.3 845.2,105.2 846.3,105.1 847.5,105.0 848.7,104.9 849.8,104.8 851.0,104.8 852.2,104.7 853.3,104.6 854.5,104.5 855.7,104.4 856.8,104.4 858.0,104.3 859.2,104.2 860.3,104.1 861.5,104.1 862.7,104.0 863.8,103.9 865.0,103.9 866.2,103.8 867.3,103.7 868.5,103.7 869.7,103.6 870.8,103.5 872.0,103.5 873.2,103.4 874.3,103.4 875.5,103.3 876.7,103.2 877.8,103.2 879.0,103.1 880.2,103.1 881.3,103.0 882.5,103.0 883.7,102.9 884.8,102.9 886.0,102.8 887.2,102.8 888.3,102.7 889.5,102.7 890.7,102.6 891.8,102.6 893.0,102.5 894.2,102.5 895.3,102.4 896.5,102.4 897.7,102.4 898.8,102.3 900.0,102.3 901.2,102.2 902.3,102.2 903.5,102.2 904.7,102.1 905.8,102.1 907.0,102.0 908.2,102.0 909.3,102.0 910.5,101.9 911.7,101.9 912.8,101.9 914.0,101.8 915.2,101.8 916.3,101.8 917.5,101.7 918.7,101.7 919.8,101.7 921.0,101.7 922.2,101.6 923.3,101.6 924.5,101.6 925.7,101.5 926.8,101.5 928.0,101.5 929.2,101.5 930.3,101.4 931.5,101.4 932.7,101.4 933.8,101.4 935.0,101.3 936.2,101.3 937.3,101.3 938.5,101.3 939.7,101.3 940.8,101.2 942.0,101.2 943.2,101.2 944.3,101.2 945.5,101.1 946.7,101.1 947.8,101.1 949.0,101.1 950.2,101.1 951.3,101.1 952.5,101.0 953.7,101.0 954.8,101.0 956.0,101.0 957.2,101.0 958.3,101.0 959.5,100.9 960.7,100.9 961.8,100.9 963.0,100.9 964.2,100.9 965.3,100.9 966.5,100.8 967.7,100.8 968.8,100.8 970.0,100.8 971.2,100.8 972.3,100.8 973.5,100.8 974.7,100.8 975.8,100.7 977.0,100.7 978.2,100.7 979.3,100.7 980.5,100.7 981.7,100.7 982.8,100.7 984.0,100.7 985.2,100.7 986.3,100.6 987.5,100.6 988.7,100.6 989.8,100.6 991.0,100.6 992.2,100.6 993.3,100.6 994.5,100.6 995.7,100.6 996.8,100.6 998.0,100.6 999.2,100.6 1000.3,100.5 1001.5,100.5 1002.7,100.5 1003.8,100.5 1005.0,100.5 1006.2,100.5 1007.3,100.5 1008.5,100.5 1009.7,100.5 1010.8,100.5 1012.0,100.5" fill="none" stroke="#6b7280" stroke-width="2.0" />
<polyline points="592.0,182.3 593.2,182.5 594.3,182.6 595.5,182.8 596.7,182.9 597.8,183.1 599.0,183.2 600.2,183.3 601.3,183.4 602.5,183.5 603.7,183.6 604.8,183.7 606.0,183.8 607.2,183.9 608.3,184.0 609.5,184.0 610.7,184.1 611.8,184.2 613.0,184.2 614.2,184.3 615.3,184.3 616.5,184.3 617.7,184.3 618.8,184.4 620.0,184.4 621.2,184.4 622.3,184.4 623.5,184.4 624.7,184.4 625.8,184.4 627.0,184.4 628.2,184.4 629.3,184.3 630.5,184.3 631.7,184.3 632.8,184.2 634.0,184.2 635.2,184.1 636.3,184.1 637.5,184.0 638.7,184.0 639.8,183.9 641.0,183.9 642.2,183.8 643.3,183.7 644.5,183.6 645.7,183.6 646.8,183.4 648.0,183.1 649.2,182.9 650.3,182.7 651.5,182.5 652.7,182.2 653.8,182.0 655.0,181.8 656.2,181.5 657.3,181.3 658.5,181.0 659.7,180.8 660.8,180.6 662.0,180.3 663.2,180.1 664.3,179.8 665.5,179.6 666.7,179.3 667.8,179.1 669.0,178.8 670.2,178.6 671.3,178.3 672.5,178.0 673.7,177.8 674.8,177.5 676.0,177.3 677.2,177.0 678.3,176.7 679.5,176.5 680.7,176.2 681.8,175.9 683.0,175.7 684.2,175.4 685.3,175.1 686.5,174.9 687.7,174.6 688.8,174.3 690.0,174.0 691.2,173.8 692.3,173.5 693.5,173.2 694.7,172.9 695.8,172.7 697.0,172.4 698.2,172.1 699.3,171.8 700.5,171.5 701.7,171.2 702.8,170.9 704.0,170.7 705.2,170.4 706.3,170.1 707.5,169.8 708.7,169.5 709.8,169.4 711.0,169.2 712.2,169.0 713.3,168.8 714.5,168.6 715.7,168.4 716.8,168.2 718.0,168.1 719.2,167.9 720.3,167.7 721.5,167.5 722.7,167.3 723.8,167.1 725.0,166.9 726.2,166.7 727.3,166.6 728.5,166.4 729.7,166.2 730.8,166.0 732.0,165.8 733.2,165.6 734.3,165.4 735.5,165.2 736.7,165.1 737.8,164.9 739.0,164.7 740.2,164.5 741.3,164.3 742.5,164.1 743.7,163.9 744.8,163.7 746.0,163.5 747.2,163.3 748.3,163.1 749.5,163.0 750.7,162.8 751.8,162.6 753.0,162.4 754.2,162.2 755.3,162.0 756.5,161.8 757.7,161.6 758.8,161.4 760.0,161.2 761.2,161.0 762.3,160.8 763.5,160.6 764.7,160.4 765.8,160.3 767.0,160.1 768.2,159.9 769.3,159.7 770.5,159.5 771.7,159.3 772.8,159.1 774.0,158.9 775.2,158.7 776.3,158.5 777.5,158.3 778.7,158.1 779.8,157.9 781.0,157.7 782.2,157.5 783.3,157.3 784.5,157.1 785.7,156.9 786.8,156.7 788.0,156.5 789.2,156.3 790.3,156.1 791.5,155.9 792.7,155.7 793.8,155.5 795.0,155.3 796.2,155.1 797.3,154.9 798.5,154.7 799.7,154.5 800.8,154.3 802.0,154.1 803.2,153.9 804.3,153.7 805.5,153.5 806.7,153.3 807.8,153.1 809.0,152.9 810.2,152.7 811.3,152.5 812.5,152.2 813.7,152.0 814.8,151.8 816.0,151.6 817.2,151.4 818.3,151.2 819.5,151.0 820.7,150.8 821.8,150.6 823.0,150.4 824.2,150.2 825.3,150.0 826.5,149.8 827.7,149.6 828.8,149.3 830.0,149.1 831.2,148.9 832.3,148.7 833.5,148.5 834.7,148.3 835.8,148.1 837.0,147.9 838.2,147.7 839.3,147.4 840.5,147.2 841.7,147.0 842.8,146.8 844.0,146.6 845.2,146.4 846.3,146.2 847.5,146.0 848.7,145.7 849.8,145.5 851.0,145.3 852.2,145.1 853.3,144.9 854.5,144.7 855.7,144.5 856.8,144.2 858.0,144.0 859.2,143.8 860.3,143.6 861.5,143.4 862.7,143.2 863.8,142.9 865.0,142.7 866.2,142.5 867.3,142.3 868.5,142.1 869.7,141.8 870.8,141.6 872.0,141.4 873.2,141.2 874.3,141.0 875.5,140.7 876.7,140.5 877.8,140.3 879.0,140.1 880.2,139.9 881.3,139.7 882.5,139.5 883.7,139.3 884.8,139.2 886.0,139.0 887.2,138.8 888.3,138.7 889.5,138.5 890.7,138.3 891.8,138.2 893.0,138.0 894.2,137.8 895.3,137.7 896.5,137.5 897.7,137.3 898.8,137.2 900.0,137.0 901.2,136.9 902.3,136.7 903.5,136.5 904.7,136.4 905.8,136.2 907.0,136.0 908.2,135.9 909.3,135.7 910.5,135.6 911.7,135.4 912.8,135.3 914.0,135.1 915.2,134.9 916.3,134.8 917.5,134.6 918.7,134.5 919.8,134.3 921.0,134.2 922.2,134.0 923.3,133.9 924.5,133.7 925.7,133.6 926.8,133.4 928.0,133.3 929.2,133.1 930.3,133.0 931.5,132.8 932.7,132.7 933.8,132.5 935.0,132.4 936.2,132.2 937.3,132.1 938.5,131.9 939.7,131.8 940.8,131.7 942.0,131.5 943.2,131.4 944.3,131.2 945.5,131.1 946.7,130.9 947.8,130.8 949.0,130.7 950.2,130.5 951.3,130.4 952.5,130.2 953.7,130.1 954.8,130.0 956.0,129.8 957.2,129.7 958.3,129.6 959.5,129.4 960.7,129.3 961.8,129.2 963.0,129.0 964.2,128.9 965.3,128.8 966.5,128.6 967.7,128.5 968.8,128.4 970.0,128.2 971.2,128.1 972.3,128.0 973.5,127.8 974.7,127.7 975.8,127.6 977.0,127.5 978.2,127.3 979.3,127.2 980.5,127.1 981.7,127.0 982.8,126.8 984.0,126.7 985.2,126.6 986.3,126.5 987.5,126.3 988.7,126.2 989.8,126.1 991.0,126.0 992.2,125.9 993.3,125.7 994.5,125.6 995.7,125.5 996.8,125.4 998.0,125.3 999.2,125.2 1000.3,125.0 1001.5,124.9 1002.7,124.8 1003.8,124.7 1005.0,124.6 1006.2,124.5 1007.3,124.4 1008.5,124.2 1009.7,124.1 1010.8,124.0 1012.0,123.9" fill="none" stroke="#c2410c" stroke-width="2.0" />
<polyline points="592.0,186.9 593.2,187.7 594.3,188.5 595.5,189.2 596.7,190.0 597.8,190.7 599.0,191.5 600.2,192.2 601.3,192.9 602.5,193.6 603.7,194.3 604.8,195.0 606.0,195.7 607.2,196.3 608.3,197.0 609.5,197.6 610.7,198.3 611.8,198.8 613.0,198.8 614.2,198.8 615.3,198.9 616.5,198.9 617.7,198.9 618.8,198.9 620.0,198.9 621.2,199.0 622.3,199.0 623.5,199.0 624.7,199.0 625.8,199.0 627.0,199.0 628.2,199.0 629.3,199.0 630.5,199.0 631.7,199.0 632.8,199.0 634.0,199.0 635.2,199.0 636.3,199.0 637.5,199.0 638.7,199.0 639.8,199.0 641.0,199.0 642.2,199.0 643.3,199.0 644.5,199.0 645.7,199.0 646.8,198.9 648.0,198.9 649.2,198.9 650.3,198.9 651.5,198.9 652.7,198.9 653.8,198.9 655.0,198.9 656.2,198.9 657.3,198.9 658.5,198.9 659.7,198.9 660.8,198.9 662.0,198.9 663.2,198.8 664.3,198.8 665.5,198.8 666.7,198.8 667.8,198.8 669.0,198.8 670.2,198.8 671.3,198.8 672.5,198.8 673.7,198.8 674.8,198.8 676.0,198.8 677.2,198.8 678.3,198.8 679.5,198.8 680.7,198.8 681.8,198.8 683.0,198.8 684.2,198.8 685.3,198.8 686.5,198.8 687.7,198.8 688.8,198.8 690.0,198.8 691.2,198.8 692.3,198.8 693.5,198.8 694.7,198.8 695.8,198.8 697.0,198.9 698.2,198.9 699.3,198.9 700.5,198.9 701.7,198.9 702.8,198.9 704.0,198.9 705.2,198.9 706.3,198.9 707.5,199.0 708.7,199.0 709.8,199.0 711.0,199.0 712.2,199.0 713.3,199.0 714.5,199.0 715.7,199.1 716.8,199.1 718.0,199.1 719.2,199.1 720.3,199.1 721.5,199.2 722.7,199.2 723.8,199.2 725.0,199.2 726.2,199.2 727.3,199.3 728.5,199.3 729.7,199.3 730.8,199.3 732.0,199.4 733.2,199.4 734.3,199.4 735.5,199.4 736.7,199.5 737.8,199.5 739.0,199.5 740.2,199.5 741.3,199.6 742.5,199.6 743.7,199.6 744.8,199.7 746.0,199.7 747.2,199.7 748.3,199.8 749.5,199.8 750.7,199.8 751.8,199.9 753.0,199.9 754.2,199.9 755.3,200.0 756.5,200.0 757.7,200.0 758.8,200.1 760.0,200.1 761.2,200.1 762.3,200.2 763.5,200.2 764.7,200.3 765.8,200.3 767.0,200.3 768.2,200.4 769.3,200.4 770.5,200.5 771.7,200.5 772.8,200.5 774.0,200.6 775.2,200.6 776.3,200.7 777.5,200.7 778.7,200.8 779.8,200.8 781.0,200.8 782.2,200.9 783.3,200.9 784.5,201.0 785.7,201.0 786.8,201.1 788.0,201.1 789.2,201.2 790.3,201.2 791.5,201.3 792.7,201.3 793.8,201.4 795.0,201.4 796.2,201.5 797.3,201.5 798.5,201.6 799.7,201.6 800.8,201.7 802.0,201.7 803.2,201.8 804.3,201.8 805.5,201.9 806.7,201.9 807.8,202.0 809.0,202.0 810.2,202.1 811.3,202.1 812.5,202.2 813.7,202.3 814.8,202.3 816.0,202.4 817.2,202.4 818.3,202.5 819.5,202.5 820.7,202.6 821.8,202.7 823.0,202.7 824.2,202.8 825.3,202.8 826.5,202.9 827.7,202.9 828.8,203.0 830.0,203.1 831.2,203.1 832.3,203.2 833.5,203.2 834.7,203.3 835.8,203.4 837.0,203.4 838.2,203.5 839.3,203.6 840.5,203.6 841.7,203.7 842.8,203.7 844.0,203.8 845.2,203.9 846.3,203.9 847.5,204.0 848.7,204.1 849.8,204.1 851.0,204.2 852.2,204.3 853.3,204.3 854.5,204.4 855.7,204.4 856.8,204.5 858.0,204.6 859.2,204.6 860.3,204.7 861.5,204.8 862.7,204.8 863.8,204.9 865.0,205.0 866.2,205.1 867.3,205.1 868.5,205.2 869.7,205.3 870.8,205.3 872.0,205.4 873.2,205.5 874.3,205.5 875.5,205.6 876.7,205.7 877.8,205.7 879.0,205.8 880.2,205.9 881.3,206.0 882.5,206.0 883.7,206.1 884.8,206.2 886.0,206.2 887.2,206.3 888.3,206.4 889.5,206.5 890.7,206.5 891.8,206.6 893.0,206.7 894.2,206.8 895.3,206.8 896.5,206.9 897.7,207.0 898.8,207.0 900.0,207.1 901.2,207.2 902.3,207.3 903.5,207.3 904.7,207.4 905.8,207.5 907.0,207.6 908.2,207.6 909.3,207.7 910.5,207.8 911.7,207.9 912.8,208.0 914.0,208.0 915.2,208.1 916.3,208.2 917.5,208.3 918.7,208.3 919.8,208.4 921.0,208.5 922.2,208.6 923.3,208.7 924.5,208.7 925.7,208.8 926.8,208.9 928.0,209.0 929.2,209.0 930.3,209.1 931.5,209.2 932.7,209.3 933.8,209.4 935.0,209.4 936.2,209.5 937.3,209.6 938.5,209.7 939.7,209.8 940.8,209.9 942.0,209.9 943.2,210.0 944.3,210.1 945.5,210.2 946.7,210.3 947.8,210.3 949.0,210.4 950.2,210.5 951.3,210.6 952.5,210.7 953.7,210.8 954.8,210.8 956.0,210.9 957.2,211.0 958.3,211.1 959.5,211.2 960.7,211.3 961.8,211.3 963.0,211.4 964.2,211.5 965.3,211.6 966.5,211.7 967.7,211.8 968.8,211.9 970.0,211.9 971.2,212.0 972.3,212.1 973.5,212.2 974.7,212.3 975.8,212.4 977.0,212.5 978.2,212.5 979.3,212.6 980.5,212.7 981.7,212.8 982.8,212.9 984.0,213.0 985.2,213.1 986.3,213.1 987.5,213.2 988.7,213.3 989.8,213.4 991.0,213.5 992.2,213.6 993.3,213.7 994.5,213.8 995.7,213.9 996.8,213.9 998.0,214.0 999.2,214.1 1000.3,214.2 1001.5,214.3 1002.7,214.4 1003.8,214.5 1005.0,214.6 1006.2,214.7 1007.3,214.7 1008.5,214.8 1009.7,214.9 1010.8,215.0 1012.0,215.1" fill="none" stroke="#2563eb" stroke-width="2.0" />
<polyline points="592.0,186.3 593.2,187.4 594.3,188.5 595.5,189.5 596.7,190.6 597.8,191.6 599.0,192.6 600.2,193.6 601.3,194.6 602.5,195.6 603.7,196.6 604.8,197.6 606.0,198.6 607.2,199.5 608.3,200.5 609.5,201.4 610.7,202.4 611.8,203.3 613.0,204.2 614.2,205.1 615.3,205.5 616.5,205.9 617.7,206.3 618.8,206.7 620.0,207.1 621.2,207.5 622.3,207.9 623.5,208.3 624.7,208.7 625.8,209.1 627.0,209.5 628.2,209.9 629.3,210.3 630.5,210.7 631.7,211.1 632.8,211.5 634.0,211.8 635.2,212.2 636.3,212.6 637.5,213.0 638.7,213.4 639.8,213.8 641.0,214.1 642.2,214.5 643.3,214.9 644.5,215.3 645.7,215.6 646.8,216.0 648.0,216.4 649.2,216.7 650.3,217.1 651.5,217.5 652.7,217.9 653.8,218.2 655.0,218.6 656.2,219.0 657.3,219.3 658.5,219.7 659.7,220.0 660.8,220.4 662.0,220.8 663.2,221.1 664.3,221.5 665.5,221.8 666.7,222.2 667.8,222.6 669.0,222.9 670.2,223.3 671.3,223.6 672.5,224.0 673.7,224.3 674.8,224.7 676.0,225.0 677.2,225.4 678.3,225.7 679.5,226.1 680.7,226.4 681.8,226.8 683.0,227.1 684.2,227.5 685.3,227.8 686.5,228.1 687.7,228.5 688.8,228.8 690.0,229.2 691.2,229.5 692.3,229.8 693.5,230.2 694.7,230.5 695.8,230.9 697.0,231.2 698.2,231.5 699.3,231.9 700.5,232.2 701.7,232.5 702.8,232.8 704.0,233.2 705.2,233.5 706.3,233.8 707.5,234.2 708.7,234.5 709.8,234.8 711.0,235.1 712.2,235.5 713.3,235.8 714.5,236.1 715.7,236.4 716.8,236.7 718.0,237.1 719.2,237.4 720.3,237.7 721.5,238.0 722.7,238.3 723.8,238.6 725.0,238.9 726.2,239.3 727.3,239.6 728.5,239.9 729.7,240.2 730.8,240.5 732.0,240.8 733.2,241.1 734.3,241.4 735.5,241.7 736.7,242.0 737.8,242.3 739.0,242.6 740.2,242.9 741.3,243.2 742.5,243.5 743.7,243.8 744.8,244.1 746.0,244.4 747.2,244.7 748.3,245.0 749.5,245.3 750.7,245.6 751.8,245.9 753.0,246.2 754.2,246.4 755.3,246.7 756.5,247.0 757.7,247.3 758.8,247.6 760.0,247.9 761.2,248.1 762.3,248.4 763.5,248.7 764.7,249.0 765.8,249.3 767.0,249.5 768.2,249.8 769.3,250.1 770.5,250.4 771.7,250.6 772.8,250.9 774.0,251.2 775.2,251.4 776.3,251.7 777.5,252.0 778.7,252.2 779.8,252.5 781.0,252.8 782.2,253.0 783.3,253.3 784.5,253.6 785.7,253.8 786.8,254.1 788.0,254.3 789.2,254.6 790.3,254.9 791.5,255.1 792.7,255.4 793.8,255.6 795.0,255.9 796.2,256.1 797.3,256.4 798.5,256.6 799.7,256.9 800.8,257.1 802.0,257.3 803.2,257.6 804.3,257.8 805.5,258.1 806.7,258.3 807.8,258.6 809.0,258.8 810.2,259.0 811.3,259.3 812.5,259.5 813.7,259.7 814.8,260.0 816.0,260.2 817.2,260.4 818.3,260.7 819.5,260.9 820.7,261.1 821.8,261.3 823.0,261.6 824.2,261.8 825.3,262.0 826.5,262.2 827.7,262.5 828.8,262.7 830.0,262.9 831.2,263.1 832.3,263.3 833.5,263.5 834.7,263.8 835.8,264.0 837.0,264.2 838.2,264.4 839.3,264.6 840.5,264.8 841.7,265.0 842.8,265.2 844.0,265.4 845.2,265.6 846.3,265.9 847.5,266.1 848.7,266.3 849.8,266.5 851.0,266.7 852.2,266.9 853.3,267.1 854.5,267.2 855.7,267.4 856.8,267.6 858.0,267.8 859.2,268.0 860.3,268.2 861.5,268.4 862.7,268.6 863.8,268.8 865.0,269.0 866.2,269.2 867.3,269.3 868.5,269.5 869.7,269.7 870.8,269.9 872.0,270.1 873.2,270.3 874.3,270.4 875.5,270.6 876.7,270.8 877.8,271.0 879.0,271.1 880.2,271.3 881.3,271.5 882.5,271.7 883.7,271.8 884.8,272.0 886.0,272.2 887.2,272.3 888.3,272.5 889.5,272.7 890.7,272.8 891.8,273.0 893.0,273.2 894.2,273.3 895.3,273.5 896.5,273.6 897.7,273.8 898.8,274.0 900.0,274.1 901.2,274.3 902.3,274.4 903.5,274.6 904.7,274.7 905.8,274.9 907.0,275.0 908.2,275.2 909.3,275.3 910.5,275.5 911.7,275.6 912.8,275.8 914.0,275.9 915.2,276.1 916.3,276.2 917.5,276.4 918.7,276.5 919.8,276.6 921.0,276.8 922.2,276.9 923.3,277.1 924.5,277.2 925.7,277.3 926.8,277.5 928.0,277.6 929.2,277.7 930.3,277.9 931.5,278.0 932.7,278.1 933.8,278.3 935.0,278.4 936.2,278.5 937.3,278.7 938.5,278.8 939.7,278.9 940.8,279.0 942.0,279.2 943.2,279.3 944.3,279.4 945.5,279.5 946.7,279.7 947.8,279.8 949.0,279.9 950.2,280.0 951.3,280.1 952.5,280.3 953.7,280.4 954.8,280.5 956.0,280.6 957.2,280.7 958.3,280.8 959.5,280.9 960.7,281.1 961.8,281.2 963.0,281.3 964.2,281.4 965.3,281.5 966.5,281.5 967.7,281.5 968.8,281.5 970.0,281.5 971.2,281.5 972.3,281.5 973.5,281.5 974.7,281.5 975.8,281.5 977.0,281.5 978.2,281.5 979.3,281.5 980.5,281.5 981.7,281.5 982.8,281.5 984.0,281.5 985.2,281.5 986.3,281.5 987.5,281.5 988.7,281.5 989.8,281.5 991.0,281.5 992.2,281.5 993.3,281.5 994.5,281.5 995.7,281.5 996.8,281.5 998.0,281.5 999.2,281.5 1000.3,281.5 1001.5,281.5 1002.7,281.5 1003.8,281.5 1005.0,281.5 1006.2,281.5 1007.3,281.5 1008.5,281.5 1009.7,281.5 1010.8,281.5 1012.0,281.5" fill="none" stroke="#059669" stroke-width="2.0" />
<polyline points="592.0,183.0 593.2,183.1 594.3,183.2 595.5,183.2 596.7,183.3 597.8,183.4 599.0,183.5 600.2,183.6 601.3,183.6 602.5,183.7 603.7,183.7 604.8,183.8 606.0,183.9 607.2,183.9 608.3,184.0 609.5,184.0 610.7,184.1 611.8,184.1 613.0,184.1 614.2,184.2 615.3,184.2 616.5,184.2 617.7,184.3 618.8,184.3 620.0,184.3 621.2,184.3 622.3,184.4 623.5,184.4 624.7,184.4 625.8,184.4 627.0,184.4 628.2,184.5 629.3,184.5 630.5,184.5 631.7,184.5 632.8,184.5 634.0,184.5 635.2,184.5 636.3,184.5 637.5,184.5 638.7,184.5 639.8,184.5 641.0,183.8 642.2,183.6 643.3,183.5 644.5,183.3 645.7,183.1 646.8,182.9 648.0,182.8 649.2,182.6 650.3,182.4 651.5,182.2 652.7,182.1 653.8,181.9 655.0,181.7 656.2,181.6 657.3,181.4 658.5,181.3 659.7,181.1 660.8,180.9 662.0,180.8 663.2,180.6 664.3,180.5 665.5,180.3 666.7,180.1 667.8,180.0 669.0,179.8 670.2,179.7 671.3,179.5 672.5,179.4 673.7,179.2 674.8,179.1 676.0,178.9 677.2,178.8 678.3,178.6 679.5,178.5 680.7,178.4 681.8,178.2 683.0,178.1 684.2,177.9 685.3,177.8 686.5,177.7 687.7,177.5 688.8,177.4 690.0,178.2 691.2,178.3 692.3,178.4 693.5,178.5 694.7,178.5 695.8,178.6 697.0,178.7 698.2,178.8 699.3,178.8 700.5,178.9 701.7,178.9 702.8,179.0 704.0,179.1 705.2,179.1 706.3,179.2 707.5,179.2 708.7,179.3 709.8,179.3 711.0,179.4 712.2,179.4 713.3,179.5 714.5,179.5 715.7,179.6 716.8,179.6 718.0,179.7 719.2,179.7 720.3,179.7 721.5,179.8 722.7,179.8 723.8,179.9 725.0,179.9 726.2,179.9 727.3,180.0 728.5,180.0 729.7,180.0 730.8,180.1 732.0,180.1 733.2,180.1 734.3,180.1 735.5,180.2 736.7,180.2 737.8,180.2 739.0,179.3 740.2,179.1 741.3,178.9 742.5,178.7 743.7,178.6 744.8,178.4 746.0,178.2 747.2,178.1 748.3,177.9 749.5,177.7 750.7,177.6 751.8,177.4 753.0,177.2 754.2,177.1 755.3,176.9 756.5,176.8 757.7,176.6 758.8,176.5 760.0,176.3 761.2,176.2 762.3,176.0 763.5,175.9 764.7,175.7 765.8,175.6 767.0,175.4 768.2,175.3 769.3,175.2 770.5,175.0 771.7,174.9 772.8,174.8 774.0,174.6 775.2,174.5 776.3,174.4 777.5,174.2 778.7,174.1 779.8,174.0 781.0,173.9 782.2,173.7 783.3,173.6 784.5,173.5 785.7,173.4 786.8,173.3 788.0,174.4 789.2,174.5 790.3,174.6 791.5,174.7 792.7,174.8 793.8,175.0 795.0,175.1 796.2,175.2 797.3,175.3 798.5,175.4 799.7,175.5 800.8,175.6 802.0,175.7 803.2,175.8 804.3,175.9 805.5,176.0 806.7,176.1 807.8,176.2 809.0,176.2 810.2,176.3 811.3,176.4 812.5,176.5 813.7,176.6 814.8,176.6 816.0,176.7 817.2,176.8 818.3,176.9 819.5,176.9 820.7,177.0 821.8,177.1 823.0,177.1 824.2,177.2 825.3,177.3 826.5,177.3 827.7,177.3 828.8,177.3 830.0,177.4 831.2,177.4 832.3,177.4 833.5,177.4 834.7,177.5 835.8,177.5 837.0,176.4 838.2,176.2 839.3,176.0 840.5,175.9 841.7,175.7 842.8,175.6 844.0,175.4 845.2,175.3 846.3,175.1 847.5,175.0 848.7,174.8 849.8,174.7 851.0,174.5 852.2,174.4 853.3,174.3 854.5,174.1 855.7,174.0 856.8,173.9 858.0,173.7 859.2,173.6 860.3,173.5 861.5,173.4 862.7,173.2 863.8,173.1 865.0,173.0 866.2,172.9 867.3,172.7 868.5,172.6 869.7,172.5 870.8,172.4 872.0,172.3 873.2,172.2 874.3,172.1 875.5,171.9 876.7,171.8 877.8,171.7 879.0,171.6 880.2,171.5 881.3,171.4 882.5,171.3 883.7,171.2 884.8,171.1 886.0,172.4 887.2,172.5 888.3,172.7 889.5,172.8 890.7,173.0 891.8,173.1 893.0,173.2 894.2,173.4 895.3,173.5 896.5,173.6 897.7,173.8 898.8,173.9 900.0,174.0 901.2,174.1 902.3,174.3 903.5,174.4 904.7,174.5 905.8,174.6 907.0,174.7 908.2,174.7 909.3,174.8 910.5,174.8 911.7,174.9 912.8,174.9 914.0,175.0 915.2,175.0 916.3,175.1 917.5,175.1 918.7,175.1 919.8,175.2 921.0,175.2 922.2,175.3 923.3,175.3 924.5,175.4 925.7,175.4 926.8,175.4 928.0,175.5 929.2,175.5 930.3,175.6 931.5,175.6 932.7,175.7 933.8,175.7 935.0,174.5 936.2,174.4 937.3,174.2 938.5,174.1 939.7,173.9 940.8,173.8 942.0,173.7 943.2,173.6 944.3,173.4 945.5,173.3 946.7,173.2 947.8,173.0 949.0,172.9 950.2,172.8 951.3,172.7 952.5,172.6 953.7,172.4 954.8,172.3 956.0,172.2 957.2,172.1 958.3,172.0 959.5,171.9 960.7,171.8 961.8,171.7 963.0,171.6 964.2,171.5 965.3,171.4 966.5,171.3 967.7,171.2 968.8,171.0 970.0,170.9 971.2,170.9 972.3,170.8 973.5,170.7 974.7,170.6 975.8,170.5 977.0,170.4 978.2,170.3 979.3,170.2 980.5,170.1 981.7,170.0 982.8,169.9 984.0,171.3 985.2,171.4 986.3,171.6 987.5,171.8 988.7,171.9 989.8,172.1 991.0,172.3 992.2,172.4 993.3,172.6 994.5,172.7 995.7,172.9 996.8,173.0 998.0,173.1 999.2,173.3 1000.3,173.4 1001.5,173.5 1002.7,173.5 1003.8,173.6 1005.0,173.7 1006.2,173.7 1007.3,173.8 1008.5,173.8 1009.7,173.9 1010.8,173.9 1012.0,174.0" fill="none" stroke="#7c3aed" stroke-width="2.0" />
<rect x="72" y="376" width="420" height="210" fill="#fbfaf7" stroke="#111827" />
<text x="86" y="402" font-size="17" font-family="Georgia" fill="#111827">Host Access</text>
<polyline points="72.0,542.3 73.2,542.7 74.3,543.2 75.5,543.6 76.7,544.1 77.8,544.5 79.0,544.9 80.2,545.4 81.3,545.8 82.5,546.2 83.7,546.6 84.8,547.1 86.0,547.5 87.2,547.9 88.3,548.3 89.5,548.8 90.7,549.2 91.8,549.6 93.0,550.0 94.2,550.4 95.3,550.8 96.5,551.2 97.7,551.6 98.8,552.0 100.0,552.4 101.2,552.8 102.3,553.2 103.5,553.6 104.7,554.0 105.8,554.4 107.0,554.8 108.2,555.2 109.3,555.6 110.5,555.9 111.7,556.3 112.8,556.7 114.0,557.1 115.2,557.5 116.3,557.8 117.5,558.2 118.7,558.6 119.8,559.0 121.0,559.3 122.2,559.7 123.3,560.1 124.5,560.4 125.7,560.8 126.8,561.1 128.0,561.5 129.2,561.9 130.3,562.2 131.5,562.6 132.7,562.9 133.8,563.3 135.0,563.6 136.2,564.0 137.3,564.3 138.5,564.6 139.7,565.0 140.8,565.3 142.0,565.7 143.2,566.0 144.3,566.3 145.5,566.7 146.7,567.0 147.8,567.3 149.0,567.7 150.2,568.0 151.3,568.3 152.5,568.4 153.7,568.5 154.8,568.6 156.0,568.7 157.2,568.8 158.3,568.9 159.5,569.0 160.7,569.1 161.8,569.2 163.0,569.3 164.2,569.4 165.3,569.5 166.5,569.6 167.7,569.8 168.8,569.9 170.0,570.0 171.2,570.1 172.3,570.2 173.5,570.3 174.7,570.4 175.8,570.5 177.0,570.6 178.2,570.7 179.3,570.8 180.5,570.9 181.7,571.0 182.8,571.1 184.0,571.3 185.2,571.4 186.3,571.5 187.5,571.5 188.7,571.5 189.8,571.5 191.0,571.5 192.2,571.5 193.3,571.5 194.5,571.5 195.7,571.5 196.8,571.5 198.0,571.5 199.2,571.5 200.3,571.5 201.5,571.5 202.7,571.5 203.8,571.5 205.0,571.5 206.2,571.5 207.3,571.5 208.5,571.5 209.7,571.5 210.8,571.5 212.0,571.5 213.2,571.5 214.3,571.5 215.5,571.5 216.7,571.5 217.8,571.5 219.0,571.5 220.2,571.5 221.3,571.5 222.5,571.5 223.7,571.5 224.8,571.5 226.0,571.5 227.2,571.5 228.3,571.5 229.5,571.5 230.7,571.5 231.8,571.5 233.0,571.5 234.2,571.5 235.3,571.5 236.5,571.5 237.7,571.5 238.8,571.5 240.0,571.5 241.2,571.5 242.3,571.5 243.5,571.5 244.7,571.5 245.8,571.5 247.0,571.5 248.2,571.5 249.3,571.5 250.5,571.5 251.7,571.5 252.8,571.5 254.0,571.5 255.2,571.5 256.3,571.5 257.5,571.5 258.7,571.5 259.8,571.5 261.0,571.5 262.2,571.5 263.3,571.5 264.5,571.5 265.7,571.5 266.8,571.5 268.0,571.5 269.2,571.5 270.3,571.5 271.5,571.5 272.7,571.5 273.8,571.5 275.0,571.5 276.2,571.5 277.3,571.5 278.5,571.5 279.7,571.5 280.8,571.5 282.0,571.5 283.2,571.5 284.3,571.5 285.5,571.5 286.7,571.5 287.8,571.5 289.0,571.5 290.2,571.5 291.3,571.5 292.5,571.5 293.7,571.5 294.8,571.5 296.0,571.5 297.2,571.5 298.3,571.5 299.5,571.5 300.7,571.5 301.8,571.5 303.0,571.5 304.2,571.5 305.3,571.5 306.5,571.5 307.7,571.5 308.8,571.5 310.0,571.5 311.2,571.5 312.3,571.5 313.5,571.5 314.7,571.5 315.8,571.5 317.0,571.5 318.2,571.5 319.3,571.5 320.5,571.5 321.7,571.5 322.8,571.5 324.0,571.5 325.2,571.5 326.3,571.5 327.5,571.5 328.7,571.5 329.8,571.5 331.0,571.5 332.2,571.5 333.3,571.5 334.5,571.5 335.7,571.5 336.8,571.5 338.0,571.5 339.2,571.5 340.3,571.5 341.5,571.5 342.7,571.5 343.8,571.5 345.0,571.5 346.2,571.5 347.3,571.5 348.5,571.5 349.7,571.5 350.8,571.5 352.0,571.5 353.2,571.5 354.3,571.5 355.5,571.5 356.7,571.5 357.8,571.5 359.0,571.5 360.2,571.5 361.3,571.5 362.5,571.5 363.7,571.5 364.8,571.5 366.0,571.5 367.2,571.5 368.3,571.5 369.5,571.5 370.7,571.5 371.8,571.5 373.0,571.5 374.2,571.5 375.3,571.5 376.5,571.5 377.7,571.5 378.8,571.5 380.0,571.5 381.2,571.5 382.3,571.5 383.5,571.5 384.7,571.5 385.8,571.5 387.0,571.5 388.2,571.5 389.3,571.5 390.5,571.5 391.7,571.5 392.8,571.5 394.0,571.5 395.2,571.5 396.3,571.5 397.5,571.5 398.7,571.5 399.8,571.5 401.0,571.5 402.2,571.5 403.3,571.5 404.5,571.5 405.7,571.5 406.8,571.5 408.0,571.5 409.2,571.5 410.3,571.5 411.5,571.5 412.7,571.5 413.8,571.5 415.0,571.5 416.2,571.5 417.3,571.5 418.5,571.5 419.7,571.5 420.8,571.5 422.0,571.5 423.2,571.5 424.3,571.5 425.5,571.5 426.7,571.5 427.8,571.5 429.0,571.5 430.2,571.5 431.3,571.5 432.5,571.5 433.7,571.5 434.8,571.5 436.0,571.5 437.2,571.5 438.3,571.5 439.5,571.5 440.7,571.5 441.8,571.5 443.0,571.5 444.2,571.5 445.3,571.5 446.5,571.5 447.7,571.5 448.8,571.5 450.0,571.5 451.2,571.5 452.3,571.5 453.5,571.5 454.7,571.5 455.8,571.5 457.0,571.5 458.2,571.5 459.3,571.5 460.5,571.5 461.7,571.5 462.8,571.5 464.0,571.5 465.2,571.5 466.3,571.5 467.5,571.5 468.7,571.5 469.8,571.5 471.0,571.5 472.2,571.5 473.3,571.5 474.5,571.5 475.7,571.5 476.8,571.5 478.0,571.5 479.2,571.5 480.3,571.5 481.5,571.5 482.7,571.5 483.8,571.5 485.0,571.5 486.2,571.5 487.3,571.5 488.5,571.5 489.7,571.5 490.8,571.5 492.0,571.5" fill="none" stroke="#6b7280" stroke-width="2.0" />
<polyline points="72.0,542.3 73.2,542.7 74.3,543.2 75.5,543.6 76.7,544.0 77.8,544.4 79.0,544.8 80.2,545.2 81.3,545.6 82.5,546.0 83.7,546.4 84.8,546.8 86.0,547.1 87.2,547.5 88.3,547.8 89.5,548.2 90.7,548.5 91.8,548.9 93.0,549.2 94.2,549.6 95.3,549.9 96.5,550.2 97.7,550.5 98.8,550.8 100.0,551.1 101.2,551.5 102.3,551.8 103.5,552.0 104.7,552.3 105.8,552.6 107.0,552.9 108.2,553.2 109.3,553.5 110.5,553.7 111.7,554.0 112.8,554.3 114.0,554.5 115.2,554.8 116.3,555.0 117.5,555.3 118.7,555.5 119.8,555.8 121.0,556.0 122.2,556.3 123.3,556.5 124.5,556.7 125.7,557.0 126.8,557.2 128.0,557.4 129.2,557.6 130.3,557.9 131.5,558.1 132.7,558.3 133.8,558.5 135.0,558.7 136.2,558.9 137.3,559.1 138.5,559.3 139.7,559.5 140.8,559.7 142.0,559.9 143.2,560.1 144.3,560.3 145.5,560.5 146.7,560.7 147.8,560.9 149.0,561.1 150.2,561.2 151.3,561.4 152.5,561.6 153.7,561.8 154.8,562.0 156.0,562.1 157.2,562.3 158.3,562.5 159.5,562.7 160.7,562.8 161.8,563.0 163.0,563.2 164.2,563.3 165.3,563.5 166.5,563.7 167.7,563.8 168.8,564.0 170.0,564.2 171.2,564.3 172.3,564.5 173.5,564.6 174.7,564.8 175.8,565.0 177.0,565.1 178.2,565.3 179.3,565.4 180.5,565.6 181.7,565.7 182.8,565.9 184.0,566.0 185.2,566.2 186.3,566.3 187.5,566.5 188.7,566.6 189.8,566.6 191.0,566.6 192.2,566.7 193.3,566.7 194.5,566.7 195.7,566.8 196.8,566.8 198.0,566.8 199.2,566.9 200.3,566.9 201.5,566.9 202.7,566.9 203.8,567.0 205.0,567.0 206.2,567.0 207.3,567.1 208.5,567.1 209.7,567.1 210.8,567.2 212.0,567.2 213.2,567.2 214.3,567.2 215.5,567.3 216.7,567.3 217.8,567.3 219.0,567.4 220.2,567.4 221.3,567.4 222.5,567.5 223.7,567.5 224.8,567.5 226.0,567.5 227.2,567.6 228.3,567.6 229.5,567.6 230.7,567.7 231.8,567.7 233.0,567.7 234.2,567.8 235.3,567.8 236.5,567.8 237.7,567.8 238.8,567.9 240.0,567.9 241.2,567.9 242.3,568.0 243.5,568.0 244.7,568.0 245.8,568.1 247.0,568.1 248.2,568.1 249.3,568.1 250.5,568.2 251.7,568.2 252.8,568.2 254.0,568.3 255.2,568.3 256.3,568.3 257.5,568.4 258.7,568.4 259.8,568.4 261.0,568.5 262.2,568.5 263.3,568.5 264.5,568.6 265.7,568.6 266.8,568.6 268.0,568.6 269.2,568.7 270.3,568.7 271.5,568.7 272.7,568.8 273.8,568.8 275.0,568.8 276.2,568.9 277.3,568.9 278.5,568.9 279.7,569.0 280.8,569.0 282.0,569.0 283.2,569.1 284.3,569.1 285.5,569.1 286.7,569.2 287.8,569.2 289.0,569.2 290.2,569.3 291.3,569.3 292.5,569.3 293.7,569.4 294.8,569.4 296.0,569.4 297.2,569.5 298.3,569.5 299.5,569.5 300.7,569.6 301.8,569.6 303.0,569.6 304.2,569.7 305.3,569.7 306.5,569.8 307.7,569.8 308.8,569.8 310.0,569.9 311.2,569.9 312.3,569.9 313.5,570.0 314.7,570.0 315.8,570.0 317.0,570.1 318.2,570.1 319.3,570.1 320.5,570.2 321.7,570.2 322.8,570.3 324.0,570.3 325.2,570.3 326.3,570.4 327.5,570.4 328.7,570.4 329.8,570.5 331.0,570.5 332.2,570.6 333.3,570.6 334.5,570.6 335.7,570.7 336.8,570.7 338.0,570.7 339.2,570.8 340.3,570.8 341.5,570.9 342.7,570.9 343.8,570.9 345.0,571.0 346.2,571.0 347.3,571.1 348.5,571.1 349.7,571.1 350.8,571.2 352.0,571.2 353.2,571.3 354.3,571.3 355.5,571.3 356.7,571.4 357.8,571.4 359.0,571.5 360.2,571.5 361.3,571.5 362.5,571.5 363.7,571.5 364.8,571.5 366.0,571.5 367.2,571.5 368.3,571.5 369.5,571.5 370.7,571.5 371.8,571.5 373.0,571.5 374.2,571.5 375.3,571.5 376.5,571.5 377.7,571.5 378.8,571.5 380.0,571.5 381.2,571.5 382.3,571.5 383.5,571.5 384.7,571.5 385.8,571.5 387.0,571.5 388.2,571.5 389.3,571.5 390.5,571.5 391.7,571.5 392.8,571.5 394.0,571.5 395.2,571.5 396.3,571.5 397.5,571.5 398.7,571.5 399.8,571.5 401.0,571.5 402.2,571.5 403.3,571.5 404.5,571.5 405.7,571.5 406.8,571.5 408.0,571.5 409.2,571.5 410.3,571.5 411.5,571.5 412.7,571.5 413.8,571.5 415.0,571.5 416.2,571.5 417.3,571.5 418.5,571.5 419.7,571.5 420.8,571.5 422.0,571.5 423.2,571.5 424.3,571.5 425.5,571.5 426.7,571.5 427.8,571.5 429.0,571.5 430.2,571.5 431.3,571.5 432.5,571.5 433.7,571.5 434.8,571.5 436.0,571.5 437.2,571.5 438.3,571.5 439.5,571.5 440.7,571.5 441.8,571.5 443.0,571.5 444.2,571.5 445.3,571.5 446.5,571.5 447.7,571.5 448.8,571.5 450.0,571.5 451.2,571.5 452.3,571.5 453.5,571.5 454.7,571.5 455.8,571.5 457.0,571.5 458.2,571.5 459.3,571.5 460.5,571.5 461.7,571.5 462.8,571.5 464.0,571.5 465.2,571.5 466.3,571.5 467.5,571.5 468.7,571.5 469.8,571.5 471.0,571.5 472.2,571.5 473.3,571.5 474.5,571.5 475.7,571.5 476.8,571.5 478.0,571.5 479.2,571.5 480.3,571.5 481.5,571.5 482.7,571.5 483.8,571.5 485.0,571.5 486.2,571.5 487.3,571.5 488.5,571.5 489.7,571.5 490.8,571.5 492.0,571.5" fill="none" stroke="#c2410c" stroke-width="2.0" />
<polyline points="72.0,542.3 73.2,542.7 74.3,543.1 75.5,543.5 76.7,543.8 77.8,544.2 79.0,544.5 80.2,544.9 81.3,545.2 82.5,545.6 83.7,545.9 84.8,546.2 86.0,546.5 87.2,546.8 88.3,547.1 89.5,547.4 90.7,547.6 91.8,547.9 93.0,548.2 94.2,548.4 95.3,548.7 96.5,548.9 97.7,549.1 98.8,549.4 100.0,549.6 101.2,549.8 102.3,550.0 103.5,550.2 104.7,550.4 105.8,550.6 107.0,550.8 108.2,551.0 109.3,551.2 110.5,551.4 111.7,551.6 112.8,551.7 114.0,551.9 115.2,552.0 116.3,552.2 117.5,552.4 118.7,552.5 119.8,552.7 121.0,552.8 122.2,552.9 123.3,553.1 124.5,553.2 125.7,553.3 126.8,553.5 128.0,553.6 129.2,553.7 130.3,553.8 131.5,554.0 132.7,554.1 133.8,554.2 135.0,554.3 136.2,554.4 137.3,554.5 138.5,554.6 139.7,554.7 140.8,554.8 142.0,554.9 143.2,555.0 144.3,555.1 145.5,555.2 146.7,555.3 147.8,555.3 149.0,555.4 150.2,555.5 151.3,555.6 152.5,555.7 153.7,555.7 154.8,555.8 156.0,555.9 157.2,555.9 158.3,556.0 159.5,556.1 160.7,556.1 161.8,556.2 163.0,556.3 164.2,556.3 165.3,556.4 166.5,556.4 167.7,556.5 168.8,556.6 170.0,556.6 171.2,556.7 172.3,556.7 173.5,556.8 174.7,556.8 175.8,556.9 177.0,556.9 178.2,556.9 179.3,557.0 180.5,557.0 181.7,557.1 182.8,557.1 184.0,557.1 185.2,557.2 186.3,557.2 187.5,557.3 188.7,557.3 189.8,557.3 191.0,557.4 192.2,557.4 193.3,557.4 194.5,557.4 195.7,557.5 196.8,557.5 198.0,557.5 199.2,557.5 200.3,557.6 201.5,557.6 202.7,557.6 203.8,557.6 205.0,557.7 206.2,557.7 207.3,557.7 208.5,557.7 209.7,557.7 210.8,557.7 212.0,557.8 213.2,557.8 214.3,557.8 215.5,557.8 216.7,557.8 217.8,557.8 219.0,557.8 220.2,557.9 221.3,557.9 222.5,557.9 223.7,557.9 224.8,557.9 226.0,557.9 227.2,557.9 228.3,557.9 229.5,557.9 230.7,557.9 231.8,557.9 233.0,557.9 234.2,557.9 235.3,557.9 236.5,557.9 237.7,557.9 238.8,557.9 240.0,557.9 241.2,557.9 242.3,557.9 243.5,557.9 244.7,557.9 245.8,557.9 247.0,557.9 248.2,557.9 249.3,557.9 250.5,557.9 251.7,557.9 252.8,557.9 254.0,557.9 255.2,557.9 256.3,557.9 257.5,557.9 258.7,557.9 259.8,557.9 261.0,557.8 262.2,557.8 263.3,557.8 264.5,557.8 265.7,557.8 266.8,557.8 268.0,557.8 269.2,557.8 270.3,557.7 271.5,557.7 272.7,557.7 273.8,557.7 275.0,557.7 276.2,557.7 277.3,557.7 278.5,557.6 279.7,557.6 280.8,557.6 282.0,557.6 283.2,557.6 284.3,557.6 285.5,557.5 286.7,557.5 287.8,557.5 289.0,557.5 290.2,557.5 291.3,557.4 292.5,557.4 293.7,557.4 294.8,557.4 296.0,557.3 297.2,557.3 298.3,557.3 299.5,557.3 300.7,557.3 301.8,557.2 303.0,557.2 304.2,557.2 305.3,557.2 306.5,557.1 307.7,557.1 308.8,557.1 310.0,557.0 311.2,557.0 312.3,557.0 313.5,557.0 314.7,556.9 315.8,556.9 317.0,556.9 318.2,556.8 319.3,556.8 320.5,556.8 321.7,556.8 322.8,556.7 324.0,556.7 325.2,556.7 326.3,556.6 327.5,556.6 328.7,556.6 329.8,556.5 331.0,556.5 332.2,556.5 333.3,556.4 334.5,556.4 335.7,556.4 336.8,556.3 338.0,556.3 339.2,556.3 340.3,556.2 341.5,556.2 342.7,556.2 343.8,556.1 345.0,556.1 346.2,556.0 347.3,556.0 348.5,556.0 349.7,555.9 350.8,555.9 352.0,555.8 353.2,555.8 354.3,555.8 355.5,555.7 356.7,555.7 357.8,555.7 359.0,555.6 360.2,555.6 361.3,555.5 362.5,555.5 363.7,555.4 364.8,555.4 366.0,555.4 367.2,555.3 368.3,555.3 369.5,555.2 370.7,555.2 371.8,555.1 373.0,555.1 374.2,555.1 375.3,555.0 376.5,555.0 377.7,554.9 378.8,554.9 380.0,554.8 381.2,554.8 382.3,554.7 383.5,554.7 384.7,554.6 385.8,554.6 387.0,554.5 388.2,554.5 389.3,554.5 390.5,554.4 391.7,554.4 392.8,554.3 394.0,554.3 395.2,554.2 396.3,554.2 397.5,554.1 398.7,554.1 399.8,554.0 401.0,554.0 402.2,553.9 403.3,553.8 404.5,553.8 405.7,553.7 406.8,553.7 408.0,553.6 409.2,553.6 410.3,553.5 411.5,553.5 412.7,553.4 413.8,553.4 415.0,553.3 416.2,553.3 417.3,553.2 418.5,553.2 419.7,553.1 420.8,553.0 422.0,553.0 423.2,552.9 424.3,552.9 425.5,552.8 426.7,552.8 427.8,552.7 429.0,552.6 430.2,552.6 431.3,552.5 432.5,552.5 433.7,552.4 434.8,552.4 436.0,552.3 437.2,552.2 438.3,552.2 439.5,552.1 440.7,552.1 441.8,552.0 443.0,551.9 444.2,551.9 445.3,551.8 446.5,551.7 447.7,551.7 448.8,551.6 450.0,551.6 451.2,551.5 452.3,551.4 453.5,551.4 454.7,551.3 455.8,551.2 457.0,551.2 458.2,551.1 459.3,551.0 460.5,551.0 461.7,550.9 462.8,550.9 464.0,550.8 465.2,550.7 466.3,550.7 467.5,550.6 468.7,550.5 469.8,550.5 471.0,550.4 472.2,550.3 473.3,550.2 474.5,550.2 475.7,550.1 476.8,550.0 478.0,550.0 479.2,549.9 480.3,549.8 481.5,549.8 482.7,549.7 483.8,549.6 485.0,549.6 486.2,549.5 487.3,549.4 488.5,549.3 489.7,549.3 490.8,549.2 492.0,549.1" fill="none" stroke="#2563eb" stroke-width="2.0" />
<polyline points="72.0,542.3 73.2,542.0 74.3,541.8 75.5,541.5 76.7,541.2 77.8,541.0 79.0,540.7 80.2,540.4 81.3,540.1 82.5,539.9 83.7,539.6 84.8,539.3 86.0,539.0 87.2,538.7 88.3,538.4 89.5,538.1 90.7,537.8 91.8,537.5 93.0,537.2 94.2,536.9 95.3,536.6 96.5,536.3 97.7,536.0 98.8,535.6 100.0,535.3 101.2,535.0 102.3,534.6 103.5,534.3 104.7,534.0 105.8,533.6 107.0,533.3 108.2,533.0 109.3,532.6 110.5,532.3 111.7,531.9 112.8,531.5 114.0,531.2 115.2,530.8 116.3,530.5 117.5,530.1 118.7,529.7 119.8,529.4 121.0,529.0 122.2,528.6 123.3,528.3 124.5,527.9 125.7,527.5 126.8,527.1 128.0,526.7 129.2,526.3 130.3,526.0 131.5,525.6 132.7,525.2 133.8,524.8 135.0,524.4 136.2,524.0 137.3,523.6 138.5,523.2 139.7,522.8 140.8,522.4 142.0,522.0 143.2,521.6 144.3,521.2 145.5,520.8 146.7,520.4 147.8,519.9 149.0,519.5 150.2,519.1 151.3,518.7 152.5,518.3 153.7,517.9 154.8,517.4 156.0,517.0 157.2,516.6 158.3,516.2 159.5,515.7 160.7,515.3 161.8,514.9 163.0,514.4 164.2,514.0 165.3,513.6 166.5,513.1 167.7,512.7 168.8,512.3 170.0,511.8 171.2,511.4 172.3,510.9 173.5,510.5 174.7,510.0 175.8,509.6 177.0,509.1 178.2,508.7 179.3,508.2 180.5,507.8 181.7,507.3 182.8,506.9 184.0,506.4 185.2,506.0 186.3,505.5 187.5,505.1 188.7,504.6 189.8,504.1 191.0,503.7 192.2,503.2 193.3,502.7 194.5,502.3 195.7,501.8 196.8,501.4 198.0,500.9 199.2,500.4 200.3,499.9 201.5,499.5 202.7,499.0 203.8,498.5 205.0,498.1 206.2,497.6 207.3,497.1 208.5,496.6 209.7,496.1 210.8,495.7 212.0,495.2 213.2,494.7 214.3,494.2 215.5,493.7 216.7,493.3 217.8,492.8 219.0,492.3 220.2,491.8 221.3,491.3 222.5,490.8 223.7,490.4 224.8,489.9 226.0,489.4 227.2,488.9 228.3,488.4 229.5,487.9 230.7,487.4 231.8,486.9 233.0,486.4 234.2,485.9 235.3,485.4 236.5,484.9 237.7,484.4 238.8,483.9 240.0,483.5 241.2,483.0 242.3,482.5 243.5,482.0 244.7,481.5 245.8,481.0 247.0,480.5 248.2,480.0 249.3,479.5 250.5,479.0 251.7,478.5 252.8,478.0 254.0,477.4 255.2,476.9 256.3,476.4 257.5,475.9 258.7,475.4 259.8,474.9 261.0,474.4 262.2,473.9 263.3,473.4 264.5,472.9 265.7,472.4 266.8,471.9 268.0,471.4 269.2,470.9 270.3,470.4 271.5,469.9 272.7,469.4 273.8,468.9 275.0,468.3 276.2,467.8 277.3,467.3 278.5,466.8 279.7,466.3 280.8,465.8 282.0,465.3 283.2,464.8 284.3,464.3 285.5,463.8 286.7,463.3 287.8,462.8 289.0,462.3 290.2,461.7 291.3,461.2 292.5,460.7 293.7,460.2 294.8,459.7 296.0,459.2 297.2,458.7 298.3,458.2 299.5,457.7 300.7,457.2 301.8,456.7 303.0,456.2 304.2,455.7 305.3,455.2 306.5,454.7 307.7,454.2 308.8,453.7 310.0,453.2 311.2,452.7 312.3,452.2 313.5,451.7 314.7,451.2 315.8,450.7 317.0,450.2 318.2,449.7 319.3,449.2 320.5,448.7 321.7,448.2 322.8,447.7 324.0,447.2 325.2,446.7 326.3,446.2 327.5,445.7 328.7,445.2 329.8,444.7 331.0,444.2 332.2,443.7 333.3,443.2 334.5,442.7 335.7,442.3 336.8,441.8 338.0,441.3 339.2,440.8 340.3,440.3 341.5,439.8 342.7,439.3 343.8,438.9 345.0,438.4 346.2,437.9 347.3,437.4 348.5,437.0 349.7,436.5 350.8,436.0 352.0,435.5 353.2,435.1 354.3,434.6 355.5,434.1 356.7,433.6 357.8,433.2 359.0,432.7 360.2,432.2 361.3,431.8 362.5,431.3 363.7,430.9 364.8,430.4 366.0,429.9 367.2,429.5 368.3,429.0 369.5,428.6 370.7,428.1 371.8,427.7 373.0,427.2 374.2,426.8 375.3,426.3 376.5,425.9 377.7,425.4 378.8,425.0 380.0,424.5 381.2,424.1 382.3,423.7 383.5,423.2 384.7,422.8 385.8,422.4 387.0,421.9 388.2,421.5 389.3,421.1 390.5,420.6 391.7,420.2 392.8,419.8 394.0,419.4 395.2,418.9 396.3,418.5 397.5,418.1 398.7,417.7 399.8,417.3 401.0,416.9 402.2,416.4 403.3,416.0 404.5,415.6 405.7,415.2 406.8,414.8 408.0,414.4 409.2,414.0 410.3,413.6 411.5,413.2 412.7,412.8 413.8,412.4 415.0,412.0 416.2,411.7 417.3,411.3 418.5,410.9 419.7,410.5 420.8,410.1 422.0,409.7 423.2,409.4 424.3,409.0 425.5,408.6 426.7,408.2 427.8,407.9 429.0,407.5 430.2,407.1 431.3,406.8 432.5,406.4 433.7,406.0 434.8,405.7 436.0,405.3 437.2,405.0 438.3,404.6 439.5,404.3 440.7,403.9 441.8,403.6 443.0,403.2 444.2,402.9 445.3,402.5 446.5,402.2 447.7,401.9 448.8,401.5 450.0,401.2 451.2,400.9 452.3,400.5 453.5,400.2 454.7,399.9 455.8,399.6 457.0,399.2 458.2,398.9 459.3,398.6 460.5,398.3 461.7,398.0 462.8,397.7 464.0,397.4 465.2,397.0 466.3,396.7 467.5,396.4 468.7,396.1 469.8,395.8 471.0,395.5 472.2,395.2 473.3,394.9 474.5,394.6 475.7,394.4 476.8,394.1 478.0,393.8 479.2,393.5 480.3,393.2 481.5,392.9 482.7,392.7 483.8,392.4 485.0,392.1 486.2,391.8 487.3,391.6 488.5,391.3 489.7,391.0 490.8,390.7 492.0,390.5" fill="none" stroke="#059669" stroke-width="2.0" />
<polyline points="72.0,542.3 73.2,542.5 74.3,542.7 75.5,542.9 76.7,543.1 77.8,543.3 79.0,543.5 80.2,543.6 81.3,543.8 82.5,544.0 83.7,544.2 84.8,544.4 86.0,544.6 87.2,544.8 88.3,544.9 89.5,545.1 90.7,545.3 91.8,545.5 93.0,545.7 94.2,545.8 95.3,546.0 96.5,546.2 97.7,546.3 98.8,546.5 100.0,546.7 101.2,546.8 102.3,547.0 103.5,547.2 104.7,547.3 105.8,547.5 107.0,547.6 108.2,547.8 109.3,547.9 110.5,548.1 111.7,548.2 112.8,548.4 114.0,548.5 115.2,548.7 116.3,548.8 117.5,548.9 118.7,549.1 119.8,549.2 121.0,549.4 122.2,549.6 123.3,549.8 124.5,550.0 125.7,550.2 126.8,550.4 128.0,550.6 129.2,550.9 130.3,551.1 131.5,551.3 132.7,551.5 133.8,551.7 135.0,551.8 136.2,552.0 137.3,552.2 138.5,552.4 139.7,552.6 140.8,552.8 142.0,553.0 143.2,553.1 144.3,553.3 145.5,553.5 146.7,553.7 147.8,553.8 149.0,554.0 150.2,554.2 151.3,554.3 152.5,554.5 153.7,554.7 154.8,554.8 156.0,555.0 157.2,555.1 158.3,555.3 159.5,555.4 160.7,555.6 161.8,555.7 163.0,555.9 164.2,556.0 165.3,556.2 166.5,556.3 167.7,556.4 168.8,556.6 170.0,556.7 171.2,556.7 172.3,556.8 173.5,556.8 174.7,556.8 175.8,556.9 177.0,556.9 178.2,556.9 179.3,557.0 180.5,557.0 181.7,557.0 182.8,557.0 184.0,557.1 185.2,557.1 186.3,557.1 187.5,557.2 188.7,557.2 189.8,557.2 191.0,557.2 192.2,557.3 193.3,557.3 194.5,557.3 195.7,557.3 196.8,557.4 198.0,557.4 199.2,557.4 200.3,557.4 201.5,557.5 202.7,557.5 203.8,557.5 205.0,557.5 206.2,557.5 207.3,557.6 208.5,557.6 209.7,557.6 210.8,557.6 212.0,557.6 213.2,557.7 214.3,557.7 215.5,557.7 216.7,557.7 217.8,557.7 219.0,557.8 220.2,557.9 221.3,558.0 222.5,558.1 223.7,558.2 224.8,558.3 226.0,558.4 227.2,558.5 228.3,558.6 229.5,558.7 230.7,558.8 231.8,558.9 233.0,559.0 234.2,559.1 235.3,559.2 236.5,559.3 237.7,559.4 238.8,559.5 240.0,559.6 241.2,559.7 242.3,559.8 243.5,559.9 244.7,560.0 245.8,560.0 247.0,560.1 248.2,560.2 249.3,560.3 250.5,560.4 251.7,560.5 252.8,560.5 254.0,560.6 255.2,560.7 256.3,560.8 257.5,560.8 258.7,560.9 259.8,561.0 261.0,561.1 262.2,561.1 263.3,561.2 264.5,561.3 265.7,561.3 266.8,561.4 268.0,561.5 269.2,561.4 270.3,561.4 271.5,561.4 272.7,561.3 273.8,561.3 275.0,561.2 276.2,561.2 277.3,561.1 278.5,561.1 279.7,561.1 280.8,561.0 282.0,561.0 283.2,560.9 284.3,560.9 285.5,560.9 286.7,560.8 287.8,560.8 289.0,560.8 290.2,560.7 291.3,560.7 292.5,560.7 293.7,560.6 294.8,560.6 296.0,560.6 297.2,560.5 298.3,560.5 299.5,560.5 300.7,560.4 301.8,560.4 303.0,560.4 304.2,560.4 305.3,560.3 306.5,560.3 307.7,560.3 308.8,560.2 310.0,560.2 311.2,560.2 312.3,560.2 313.5,560.1 314.7,560.1 315.8,560.1 317.0,560.0 318.2,560.1 319.3,560.2 320.5,560.3 321.7,560.3 322.8,560.4 324.0,560.5 325.2,560.6 326.3,560.6 327.5,560.7 328.7,560.8 329.8,560.8 331.0,560.9 332.2,561.0 333.3,561.0 334.5,561.1 335.7,561.1 336.8,561.2 338.0,561.3 339.2,561.3 340.3,561.4 341.5,561.4 342.7,561.5 343.8,561.6 345.0,561.6 346.2,561.7 347.3,561.7 348.5,561.8 349.7,561.8 350.8,561.9 352.0,561.9 353.2,562.0 354.3,562.0 355.5,562.1 356.7,562.1 357.8,562.2 359.0,562.2 360.2,562.3 361.3,562.3 362.5,562.4 363.7,562.4 364.8,562.5 366.0,562.5 367.2,562.5 368.3,562.4 369.5,562.3 370.7,562.2 371.8,562.2 373.0,562.1 374.2,562.0 375.3,562.0 376.5,561.9 377.7,561.9 378.8,561.8 380.0,561.7 381.2,561.7 382.3,561.6 383.5,561.6 384.7,561.5 385.8,561.4 387.0,561.4 388.2,561.3 389.3,561.3 390.5,561.2 391.7,561.2 392.8,561.1 394.0,561.1 395.2,561.0 396.3,561.0 397.5,560.9 398.7,560.9 399.8,560.8 401.0,560.8 402.2,560.7 403.3,560.7 404.5,560.6 405.7,560.6 406.8,560.5 408.0,560.5 409.2,560.4 410.3,560.4 411.5,560.3 412.7,560.3 413.8,560.2 415.0,560.2 416.2,560.3 417.3,560.3 418.5,560.4 419.7,560.4 420.8,560.5 422.0,560.6 423.2,560.6 424.3,560.7 425.5,560.8 426.7,560.8 427.8,560.9 429.0,560.9 430.2,561.0 431.3,561.0 432.5,561.1 433.7,561.1 434.8,561.2 436.0,561.3 437.2,561.3 438.3,561.4 439.5,561.4 440.7,561.5 441.8,561.5 443.0,561.6 444.2,561.6 445.3,561.7 446.5,561.7 447.7,561.8 448.8,561.8 450.0,561.8 451.2,561.9 452.3,561.9 453.5,562.0 454.7,562.0 455.8,562.1 457.0,562.1 458.2,562.2 459.3,562.2 460.5,562.3 461.7,562.3 462.8,562.3 464.0,562.4 465.2,562.3 466.3,562.2 467.5,562.1 468.7,562.1 469.8,562.0 471.0,561.9 472.2,561.8 473.3,561.8 474.5,561.7 475.7,561.6 476.8,561.6 478.0,561.5 479.2,561.4 480.3,561.4 481.5,561.3 482.7,561.3 483.8,561.2 485.0,561.1 486.2,561.1 487.3,561.0 488.5,560.9 489.7,560.9 490.8,560.8 492.0,560.8" fill="none" stroke="#7c3aed" stroke-width="2.0" />
<rect x="592" y="376" width="420" height="210" fill="#fbfaf7" stroke="#111827" />
<text x="606" y="402" font-size="17" font-family="Georgia" fill="#111827">Resistance</text>
<polyline points="592.0,561.4 593.2,561.4 594.3,561.5 595.5,561.5 596.7,561.6 597.8,561.6 599.0,561.6 600.2,561.7 601.3,561.7 602.5,561.8 603.7,561.8 604.8,561.8 606.0,561.9 607.2,561.9 608.3,561.9 609.5,562.0 610.7,562.0 611.8,562.1 613.0,562.1 614.2,562.1 615.3,562.2 616.5,562.2 617.7,562.3 618.8,562.3 620.0,562.3 621.2,562.4 622.3,562.4 623.5,562.4 624.7,562.5 625.8,562.5 627.0,562.6 628.2,562.6 629.3,562.6 630.5,562.7 631.7,562.7 632.8,562.7 634.0,562.8 635.2,562.8 636.3,562.8 637.5,562.9 638.7,562.9 639.8,563.0 641.0,563.0 642.2,563.0 643.3,563.1 644.5,563.1 645.7,563.1 646.8,563.2 648.0,563.2 649.2,563.2 650.3,563.3 651.5,563.3 652.7,563.4 653.8,563.4 655.0,563.4 656.2,563.5 657.3,563.5 658.5,563.5 659.7,563.6 660.8,563.6 662.0,563.6 663.2,563.7 664.3,563.7 665.5,563.7 666.7,563.8 667.8,563.8 669.0,563.8 670.2,563.9 671.3,563.9 672.5,563.9 673.7,564.0 674.8,564.0 676.0,564.0 677.2,564.1 678.3,564.1 679.5,564.1 680.7,564.2 681.8,564.2 683.0,564.3 684.2,564.3 685.3,564.3 686.5,564.4 687.7,564.4 688.8,564.4 690.0,564.5 691.2,564.5 692.3,564.5 693.5,564.6 694.7,564.6 695.8,564.6 697.0,564.7 698.2,564.7 699.3,564.7 700.5,564.7 701.7,564.8 702.8,564.8 704.0,564.8 705.2,564.9 706.3,564.9 707.5,564.9 708.7,565.0 709.8,565.0 711.0,565.0 712.2,565.1 713.3,565.1 714.5,565.1 715.7,565.2 716.8,565.2 718.0,565.2 719.2,565.3 720.3,565.3 721.5,565.3 722.7,565.4 723.8,565.4 725.0,565.4 726.2,565.5 727.3,565.5 728.5,565.5 729.7,565.5 730.8,565.6 732.0,565.6 733.2,565.6 734.3,565.7 735.5,565.7 736.7,565.7 737.8,565.8 739.0,565.8 740.2,565.8 741.3,565.9 742.5,565.9 743.7,565.9 744.8,565.9 746.0,566.0 747.2,566.0 748.3,566.0 749.5,566.1 750.7,566.1 751.8,566.1 753.0,566.2 754.2,566.2 755.3,566.2 756.5,566.2 757.7,566.3 758.8,566.3 760.0,566.3 761.2,566.4 762.3,566.4 763.5,566.4 764.7,566.5 765.8,566.5 767.0,566.5 768.2,566.5 769.3,566.6 770.5,566.6 771.7,566.6 772.8,566.7 774.0,566.7 775.2,566.7 776.3,566.7 777.5,566.8 778.7,566.8 779.8,566.8 781.0,566.9 782.2,566.9 783.3,566.9 784.5,566.9 785.7,567.0 786.8,567.0 788.0,567.0 789.2,567.1 790.3,567.1 791.5,567.1 792.7,567.1 793.8,567.2 795.0,567.2 796.2,567.2 797.3,567.3 798.5,567.3 799.7,567.3 800.8,567.3 802.0,567.4 803.2,567.4 804.3,567.4 805.5,567.4 806.7,567.5 807.8,567.5 809.0,567.5 810.2,567.6 811.3,567.6 812.5,567.6 813.7,567.6 814.8,567.7 816.0,567.7 817.2,567.7 818.3,567.7 819.5,567.8 820.7,567.8 821.8,567.8 823.0,567.8 824.2,567.9 825.3,567.9 826.5,567.9 827.7,568.0 828.8,568.0 830.0,568.0 831.2,568.0 832.3,568.1 833.5,568.1 834.7,568.1 835.8,568.1 837.0,568.2 838.2,568.2 839.3,568.2 840.5,568.2 841.7,568.3 842.8,568.3 844.0,568.3 845.2,568.3 846.3,568.4 847.5,568.4 848.7,568.4 849.8,568.4 851.0,568.5 852.2,568.5 853.3,568.5 854.5,568.5 855.7,568.6 856.8,568.6 858.0,568.6 859.2,568.6 860.3,568.7 861.5,568.7 862.7,568.7 863.8,568.7 865.0,568.8 866.2,568.8 867.3,568.8 868.5,568.8 869.7,568.9 870.8,568.9 872.0,568.9 873.2,568.9 874.3,569.0 875.5,569.0 876.7,569.0 877.8,569.0 879.0,569.1 880.2,569.1 881.3,569.1 882.5,569.1 883.7,569.2 884.8,569.2 886.0,569.2 887.2,569.2 888.3,569.3 889.5,569.3 890.7,569.3 891.8,569.3 893.0,569.3 894.2,569.4 895.3,569.4 896.5,569.4 897.7,569.4 898.8,569.5 900.0,569.5 901.2,569.5 902.3,569.5 903.5,569.6 904.7,569.6 905.8,569.6 907.0,569.6 908.2,569.6 909.3,569.7 910.5,569.7 911.7,569.7 912.8,569.7 914.0,569.8 915.2,569.8 916.3,569.8 917.5,569.8 918.7,569.9 919.8,569.9 921.0,569.9 922.2,569.9 923.3,569.9 924.5,570.0 925.7,570.0 926.8,570.0 928.0,570.0 929.2,570.1 930.3,570.1 931.5,570.1 932.7,570.1 933.8,570.1 935.0,570.2 936.2,570.2 937.3,570.2 938.5,570.2 939.7,570.3 940.8,570.3 942.0,570.3 943.2,570.3 944.3,570.3 945.5,570.4 946.7,570.4 947.8,570.4 949.0,570.4 950.2,570.4 951.3,570.5 952.5,570.5 953.7,570.5 954.8,570.5 956.0,570.6 957.2,570.6 958.3,570.6 959.5,570.6 960.7,570.6 961.8,570.7 963.0,570.7 964.2,570.7 965.3,570.7 966.5,570.7 967.7,570.8 968.8,570.8 970.0,570.8 971.2,570.8 972.3,570.8 973.5,570.9 974.7,570.9 975.8,570.9 977.0,570.9 978.2,570.9 979.3,571.0 980.5,571.0 981.7,571.0 982.8,571.0 984.0,571.0 985.2,571.1 986.3,571.1 987.5,571.1 988.7,571.1 989.8,571.1 991.0,571.2 992.2,571.2 993.3,571.2 994.5,571.2 995.7,571.2 996.8,571.3 998.0,571.3 999.2,571.3 1000.3,571.3 1001.5,571.3 1002.7,571.4 1003.8,571.4 1005.0,571.4 1006.2,571.4 1007.3,571.4 1008.5,571.5 1009.7,571.5 1010.8,571.5 1012.0,571.5" fill="none" stroke="#6b7280" stroke-width="2.0" />
<polyline points="592.0,561.4 593.2,560.3 594.3,559.2 595.5,558.2 596.7,557.1 597.8,556.0 599.0,554.9 600.2,553.9 601.3,552.8 602.5,551.7 603.7,550.6 604.8,549.6 606.0,548.5 607.2,547.4 608.3,546.4 609.5,545.3 610.7,544.2 611.8,543.2 613.0,542.1 614.2,541.0 615.3,540.0 616.5,538.9 617.7,537.9 618.8,536.8 620.0,535.8 621.2,534.7 622.3,533.7 623.5,532.7 624.7,531.6 625.8,530.6 627.0,529.6 628.2,528.5 629.3,527.5 630.5,526.5 631.7,525.5 632.8,524.5 634.0,523.5 635.2,522.4 636.3,521.4 637.5,520.4 638.7,519.4 639.8,518.5 641.0,517.5 642.2,516.5 643.3,515.5 644.5,514.5 645.7,513.5 646.8,512.6 648.0,511.6 649.2,510.6 650.3,509.7 651.5,508.7 652.7,507.8 653.8,506.8 655.0,505.9 656.2,505.0 657.3,504.0 658.5,503.1 659.7,502.2 660.8,501.3 662.0,500.3 663.2,499.4 664.3,498.5 665.5,497.6 666.7,496.7 667.8,495.8 669.0,494.9 670.2,494.0 671.3,493.2 672.5,492.3 673.7,491.4 674.8,490.5 676.0,489.7 677.2,488.8 678.3,488.0 679.5,487.1 680.7,486.3 681.8,485.4 683.0,484.6 684.2,483.8 685.3,482.9 686.5,482.1 687.7,481.3 688.8,480.5 690.0,479.7 691.2,478.9 692.3,478.1 693.5,477.3 694.7,476.5 695.8,475.7 697.0,474.9 698.2,474.1 699.3,473.3 700.5,472.6 701.7,471.8 702.8,471.0 704.0,470.3 705.2,469.5 706.3,468.8 707.5,468.0 708.7,467.3 709.8,466.6 711.0,465.8 712.2,465.1 713.3,464.4 714.5,463.7 715.7,463.0 716.8,462.3 718.0,461.6 719.2,460.9 720.3,460.2 721.5,459.6 722.7,458.9 723.8,458.2 725.0,457.6 726.2,456.9 727.3,456.3 728.5,455.6 729.7,455.0 730.8,454.4 732.0,453.7 733.2,453.1 734.3,452.5 735.5,451.9 736.7,451.3 737.8,450.7 739.0,450.1 740.2,449.5 741.3,448.9 742.5,448.4 743.7,447.8 744.8,447.2 746.0,446.6 747.2,446.1 748.3,445.5 749.5,445.0 750.7,444.4 751.8,443.9 753.0,443.4 754.2,442.8 755.3,442.3 756.5,441.8 757.7,441.3 758.8,440.7 760.0,440.2 761.2,439.7 762.3,439.2 763.5,438.7 764.7,438.2 765.8,437.7 767.0,437.3 768.2,436.8 769.3,436.3 770.5,435.8 771.7,435.4 772.8,434.9 774.0,434.4 775.2,434.0 776.3,433.5 777.5,433.1 778.7,432.6 779.8,432.2 781.0,431.8 782.2,431.3 783.3,430.9 784.5,430.5 785.7,430.0 786.8,429.6 788.0,429.2 789.2,428.8 790.3,428.4 791.5,428.0 792.7,427.6 793.8,427.2 795.0,426.8 796.2,426.4 797.3,426.0 798.5,425.6 799.7,425.2 800.8,424.9 802.0,424.5 803.2,424.1 804.3,423.7 805.5,423.4 806.7,423.0 807.8,422.6 809.0,422.3 810.2,421.9 811.3,421.6 812.5,421.2 813.7,420.9 814.8,420.5 816.0,420.2 817.2,419.9 818.3,419.5 819.5,419.2 820.7,418.9 821.8,418.5 823.0,418.2 824.2,417.9 825.3,417.6 826.5,417.3 827.7,416.9 828.8,416.6 830.0,416.3 831.2,416.0 832.3,415.7 833.5,415.4 834.7,415.1 835.8,414.8 837.0,414.5 838.2,414.2 839.3,414.0 840.5,413.7 841.7,413.4 842.8,413.1 844.0,412.8 845.2,412.5 846.3,412.3 847.5,412.0 848.7,411.7 849.8,411.5 851.0,411.2 852.2,410.9 853.3,410.7 854.5,410.4 855.7,410.1 856.8,409.9 858.0,409.6 859.2,409.4 860.3,409.1 861.5,408.9 862.7,408.6 863.8,408.4 865.0,408.2 866.2,407.9 867.3,407.7 868.5,407.4 869.7,407.2 870.8,407.0 872.0,406.7 873.2,406.5 874.3,406.3 875.5,406.1 876.7,405.8 877.8,405.6 879.0,405.4 880.2,405.2 881.3,405.0 882.5,404.7 883.7,404.5 884.8,404.3 886.0,404.1 887.2,403.9 888.3,403.7 889.5,403.5 890.7,403.3 891.8,403.1 893.0,402.9 894.2,402.7 895.3,402.5 896.5,402.3 897.7,402.1 898.8,402.0 900.0,401.8 901.2,401.6 902.3,401.4 903.5,401.2 904.7,401.0 905.8,400.9 907.0,400.7 908.2,400.5 909.3,400.4 910.5,400.2 911.7,400.0 912.8,399.9 914.0,399.7 915.2,399.5 916.3,399.4 917.5,399.2 918.7,399.1 919.8,398.9 921.0,398.7 922.2,398.6 923.3,398.4 924.5,398.3 925.7,398.1 926.8,398.0 928.0,397.9 929.2,397.7 930.3,397.6 931.5,397.4 932.7,397.3 933.8,397.2 935.0,397.0 936.2,396.9 937.3,396.7 938.5,396.6 939.7,396.5 940.8,396.4 942.0,396.2 943.2,396.1 944.3,396.0 945.5,395.8 946.7,395.7 947.8,395.6 949.0,395.5 950.2,395.4 951.3,395.2 952.5,395.1 953.7,395.0 954.8,394.9 956.0,394.8 957.2,394.7 958.3,394.6 959.5,394.4 960.7,394.3 961.8,394.2 963.0,394.1 964.2,394.0 965.3,393.9 966.5,393.8 967.7,393.7 968.8,393.6 970.0,393.5 971.2,393.4 972.3,393.3 973.5,393.2 974.7,393.1 975.8,393.0 977.0,392.9 978.2,392.8 979.3,392.7 980.5,392.6 981.7,392.6 982.8,392.5 984.0,392.4 985.2,392.3 986.3,392.2 987.5,392.1 988.7,392.0 989.8,391.9 991.0,391.9 992.2,391.8 993.3,391.7 994.5,391.6 995.7,391.5 996.8,391.5 998.0,391.4 999.2,391.3 1000.3,391.2 1001.5,391.1 1002.7,391.1 1003.8,391.0 1005.0,390.9 1006.2,390.8 1007.3,390.8 1008.5,390.7 1009.7,390.6 1010.8,390.6 1012.0,390.5" fill="none" stroke="#c2410c" stroke-width="2.0" />
<polyline points="592.0,561.4 593.2,560.0 594.3,558.5 595.5,557.1 596.7,555.7 597.8,554.3 599.0,552.9 600.2,551.6 601.3,550.2 602.5,548.9 603.7,547.5 604.8,546.2 606.0,544.9 607.2,543.6 608.3,542.3 609.5,541.0 610.7,539.8 611.8,538.5 613.0,537.3 614.2,536.0 615.3,534.8 616.5,533.6 617.7,532.4 618.8,531.2 620.0,530.1 621.2,528.9 622.3,527.8 623.5,526.6 624.7,525.5 625.8,524.4 627.0,523.3 628.2,522.2 629.3,521.2 630.5,520.1 631.7,519.0 632.8,518.0 634.0,517.0 635.2,516.0 636.3,515.0 637.5,514.0 638.7,513.0 639.8,512.0 641.0,511.1 642.2,510.1 643.3,509.2 644.5,508.3 645.7,507.3 646.8,506.4 648.0,505.5 649.2,504.7 650.3,503.8 651.5,502.9 652.7,502.1 653.8,501.3 655.0,500.4 656.2,499.6 657.3,498.8 658.5,498.0 659.7,497.2 660.8,496.4 662.0,495.7 663.2,494.9 664.3,494.2 665.5,493.4 666.7,492.7 667.8,492.0 669.0,491.3 670.2,490.6 671.3,489.9 672.5,489.2 673.7,488.5 674.8,487.9 676.0,487.2 677.2,486.6 678.3,485.9 679.5,485.3 680.7,484.7 681.8,484.1 683.0,483.5 684.2,482.9 685.3,482.3 686.5,481.7 687.7,481.1 688.8,480.6 690.0,480.0 691.2,479.5 692.3,478.9 693.5,478.4 694.7,477.9 695.8,477.4 697.0,476.8 698.2,476.3 699.3,475.8 700.5,475.3 701.7,474.9 702.8,474.4 704.0,473.9 705.2,473.5 706.3,473.0 707.5,472.6 708.7,472.1 709.8,471.7 711.0,471.2 712.2,470.8 713.3,470.4 714.5,470.0 715.7,469.6 716.8,469.2 718.0,468.8 719.2,468.4 720.3,468.0 721.5,467.6 722.7,467.3 723.8,466.9 725.0,466.5 726.2,466.2 727.3,465.8 728.5,465.5 729.7,465.2 730.8,464.8 732.0,464.5 733.2,464.2 734.3,463.8 735.5,463.5 736.7,463.2 737.8,462.9 739.0,462.6 740.2,462.3 741.3,462.0 742.5,461.7 743.7,461.5 744.8,461.2 746.0,460.9 747.2,460.6 748.3,460.4 749.5,460.1 750.7,459.8 751.8,459.6 753.0,459.3 754.2,459.1 755.3,458.9 756.5,458.6 757.7,458.4 758.8,458.2 760.0,457.9 761.2,457.7 762.3,457.5 763.5,457.3 764.7,457.1 765.8,456.9 767.0,456.7 768.2,456.4 769.3,456.3 770.5,456.1 771.7,455.9 772.8,455.7 774.0,455.5 775.2,455.3 776.3,455.1 777.5,455.0 778.7,454.8 779.8,454.6 781.0,454.4 782.2,454.3 783.3,454.1 784.5,454.0 785.7,453.8 786.8,453.6 788.0,453.5 789.2,453.3 790.3,453.2 791.5,453.1 792.7,452.9 793.8,452.8 795.0,452.6 796.2,452.5 797.3,452.4 798.5,452.3 799.7,452.1 800.8,452.0 802.0,451.9 803.2,451.8 804.3,451.7 805.5,451.5 806.7,451.4 807.8,451.3 809.0,451.2 810.2,451.1 811.3,451.0 812.5,450.9 813.7,450.8 814.8,450.7 816.0,450.6 817.2,450.5 818.3,450.4 819.5,450.3 820.7,450.2 821.8,450.2 823.0,450.1 824.2,450.0 825.3,449.9 826.5,449.8 827.7,449.8 828.8,449.7 830.0,449.6 831.2,449.5 832.3,449.5 833.5,449.4 834.7,449.3 835.8,449.3 837.0,449.2 838.2,449.1 839.3,449.1 840.5,449.0 841.7,449.0 842.8,448.9 844.0,448.8 845.2,448.8 846.3,448.7 847.5,448.7 848.7,448.6 849.8,448.6 851.0,448.5 852.2,448.5 853.3,448.4 854.5,448.4 855.7,448.4 856.8,448.3 858.0,448.3 859.2,448.2 860.3,448.2 861.5,448.2 862.7,448.1 863.8,448.1 865.0,448.1 866.2,448.0 867.3,448.0 868.5,448.0 869.7,448.0 870.8,447.9 872.0,447.9 873.2,447.9 874.3,447.9 875.5,447.8 876.7,447.8 877.8,447.8 879.0,447.8 880.2,447.8 881.3,447.7 882.5,447.7 883.7,447.7 884.8,447.7 886.0,447.7 887.2,447.7 888.3,447.7 889.5,447.7 890.7,447.6 891.8,447.6 893.0,447.6 894.2,447.6 895.3,447.6 896.5,447.6 897.7,447.6 898.8,447.6 900.0,447.6 901.2,447.6 902.3,447.6 903.5,447.6 904.7,447.6 905.8,447.6 907.0,447.6 908.2,447.6 909.3,447.6 910.5,447.6 911.7,447.6 912.8,447.6 914.0,447.6 915.2,447.6 916.3,447.6 917.5,447.6 918.7,447.7 919.8,447.7 921.0,447.7 922.2,447.7 923.3,447.7 924.5,447.7 925.7,447.7 926.8,447.7 928.0,447.8 929.2,447.8 930.3,447.8 931.5,447.8 932.7,447.8 933.8,447.8 935.0,447.9 936.2,447.9 937.3,447.9 938.5,447.9 939.7,447.9 940.8,448.0 942.0,448.0 943.2,448.0 944.3,448.0 945.5,448.0 946.7,448.1 947.8,448.1 949.0,448.1 950.2,448.1 951.3,448.2 952.5,448.2 953.7,448.2 954.8,448.3 956.0,448.3 957.2,448.3 958.3,448.3 959.5,448.4 960.7,448.4 961.8,448.4 963.0,448.5 964.2,448.5 965.3,448.5 966.5,448.6 967.7,448.6 968.8,448.6 970.0,448.7 971.2,448.7 972.3,448.7 973.5,448.8 974.7,448.8 975.8,448.8 977.0,448.9 978.2,448.9 979.3,448.9 980.5,449.0 981.7,449.0 982.8,449.1 984.0,449.1 985.2,449.1 986.3,449.2 987.5,449.2 988.7,449.3 989.8,449.3 991.0,449.3 992.2,449.4 993.3,449.4 994.5,449.5 995.7,449.5 996.8,449.6 998.0,449.6 999.2,449.6 1000.3,449.7 1001.5,449.7 1002.7,449.8 1003.8,449.8 1005.0,449.9 1006.2,449.9 1007.3,450.0 1008.5,450.0 1009.7,450.1 1010.8,450.1 1012.0,450.2" fill="none" stroke="#2563eb" stroke-width="2.0" />
<polyline points="592.0,561.4 593.2,560.1 594.3,558.8 595.5,557.5 596.7,556.3 597.8,555.1 599.0,553.9 600.2,552.7 601.3,551.5 602.5,550.4 603.7,549.3 604.8,548.2 606.0,547.1 607.2,546.0 608.3,545.0 609.5,544.0 610.7,543.0 611.8,542.0 613.0,541.0 614.2,540.0 615.3,539.1 616.5,538.2 617.7,537.3 618.8,536.4 620.0,535.5 621.2,534.7 622.3,533.8 623.5,533.0 624.7,532.2 625.8,531.4 627.0,530.6 628.2,529.9 629.3,529.1 630.5,528.4 631.7,527.7 632.8,527.0 634.0,526.3 635.2,525.6 636.3,525.0 637.5,524.3 638.7,523.7 639.8,523.0 641.0,522.4 642.2,521.8 643.3,521.3 644.5,520.7 645.7,520.1 646.8,519.6 648.0,519.0 649.2,518.5 650.3,518.0 651.5,517.5 652.7,517.0 653.8,516.5 655.0,516.0 656.2,515.6 657.3,515.1 658.5,514.7 659.7,514.2 660.8,513.8 662.0,513.4 663.2,513.0 664.3,512.6 665.5,512.2 666.7,511.8 667.8,511.5 669.0,511.1 670.2,510.8 671.3,510.4 672.5,510.1 673.7,509.8 674.8,509.4 676.0,509.1 677.2,508.8 678.3,508.5 679.5,508.3 680.7,508.0 681.8,507.7 683.0,507.5 684.2,507.2 685.3,507.0 686.5,506.7 687.7,506.5 688.8,506.3 690.0,506.0 691.2,505.8 692.3,505.6 693.5,505.4 694.7,505.2 695.8,505.0 697.0,504.9 698.2,504.7 699.3,504.5 700.5,504.3 701.7,504.2 702.8,504.0 704.0,503.9 705.2,503.8 706.3,503.6 707.5,503.5 708.7,503.4 709.8,503.2 711.0,503.1 712.2,503.0 713.3,502.9 714.5,502.8 715.7,502.7 716.8,502.6 718.0,502.6 719.2,502.5 720.3,502.4 721.5,502.3 722.7,502.3 723.8,502.2 725.0,502.2 726.2,502.1 727.3,502.1 728.5,502.0 729.7,502.0 730.8,501.9 732.0,501.9 733.2,501.9 734.3,501.9 735.5,501.8 736.7,501.8 737.8,501.8 739.0,501.8 740.2,501.8 741.3,501.8 742.5,501.8 743.7,501.8 744.8,501.8 746.0,501.8 747.2,501.8 748.3,501.9 749.5,501.9 750.7,501.9 751.8,501.9 753.0,502.0 754.2,502.0 755.3,502.0 756.5,502.1 757.7,502.1 758.8,502.2 760.0,502.2 761.2,502.3 762.3,502.3 763.5,502.4 764.7,502.5 765.8,502.5 767.0,502.6 768.2,502.6 769.3,502.7 770.5,502.8 771.7,502.9 772.8,502.9 774.0,503.0 775.2,503.1 776.3,503.2 777.5,503.3 778.7,503.4 779.8,503.5 781.0,503.6 782.2,503.7 783.3,503.8 784.5,503.9 785.7,504.0 786.8,504.1 788.0,504.2 789.2,504.3 790.3,504.4 791.5,504.5 792.7,504.6 793.8,504.7 795.0,504.9 796.2,505.0 797.3,505.1 798.5,505.2 799.7,505.3 800.8,505.5 802.0,505.6 803.2,505.7 804.3,505.9 805.5,506.0 806.7,506.1 807.8,506.3 809.0,506.4 810.2,506.5 811.3,506.7 812.5,506.8 813.7,507.0 814.8,507.1 816.0,507.3 817.2,507.4 818.3,507.6 819.5,507.7 820.7,507.9 821.8,508.0 823.0,508.2 824.2,508.3 825.3,508.5 826.5,508.6 827.7,508.8 828.8,508.9 830.0,509.1 831.2,509.3 832.3,509.4 833.5,509.6 834.7,509.8 835.8,509.9 837.0,510.1 838.2,510.3 839.3,510.4 840.5,510.6 841.7,510.8 842.8,511.0 844.0,511.1 845.2,511.3 846.3,511.5 847.5,511.6 848.7,511.8 849.8,512.0 851.0,512.2 852.2,512.4 853.3,512.5 854.5,512.7 855.7,512.9 856.8,513.1 858.0,513.3 859.2,513.4 860.3,513.6 861.5,513.8 862.7,514.0 863.8,514.2 865.0,514.4 866.2,514.6 867.3,514.7 868.5,514.9 869.7,515.1 870.8,515.3 872.0,515.5 873.2,515.7 874.3,515.9 875.5,516.1 876.7,516.3 877.8,516.5 879.0,516.6 880.2,516.8 881.3,517.0 882.5,517.2 883.7,517.4 884.8,517.6 886.0,517.8 887.2,518.0 888.3,518.2 889.5,518.4 890.7,518.6 891.8,518.8 893.0,519.0 894.2,519.2 895.3,519.4 896.5,519.6 897.7,519.8 898.8,520.0 900.0,520.2 901.2,520.4 902.3,520.6 903.5,520.8 904.7,521.0 905.8,521.2 907.0,521.4 908.2,521.6 909.3,521.8 910.5,522.0 911.7,522.2 912.8,522.4 914.0,522.6 915.2,522.8 916.3,523.0 917.5,523.2 918.7,523.4 919.8,523.6 921.0,523.8 922.2,524.0 923.3,524.2 924.5,524.4 925.7,524.6 926.8,524.8 928.0,525.0 929.2,525.2 930.3,525.4 931.5,525.6 932.7,525.8 933.8,526.0 935.0,526.2 936.2,526.4 937.3,526.6 938.5,526.8 939.7,527.0 940.8,527.2 942.0,527.4 943.2,527.6 944.3,527.8 945.5,528.0 946.7,528.2 947.8,528.4 949.0,528.6 950.2,528.8 951.3,529.0 952.5,529.2 953.7,529.3 954.8,529.5 956.0,529.7 957.2,529.9 958.3,530.1 959.5,530.3 960.7,530.5 961.8,530.7 963.0,530.9 964.2,531.1 965.3,531.3 966.5,531.5 967.7,531.7 968.8,531.9 970.0,532.1 971.2,532.3 972.3,532.5 973.5,532.7 974.7,532.9 975.8,533.1 977.0,533.3 978.2,533.5 979.3,533.7 980.5,533.8 981.7,534.0 982.8,534.2 984.0,534.4 985.2,534.6 986.3,534.8 987.5,535.0 988.7,535.2 989.8,535.4 991.0,535.6 992.2,535.8 993.3,535.9 994.5,536.1 995.7,536.3 996.8,536.5 998.0,536.7 999.2,536.9 1000.3,537.1 1001.5,537.3 1002.7,537.4 1003.8,537.6 1005.0,537.8 1006.2,538.0 1007.3,538.2 1008.5,538.4 1009.7,538.5 1010.8,538.7 1012.0,538.9" fill="none" stroke="#059669" stroke-width="2.0" />
<polyline points="592.0,561.4 593.2,561.0 594.3,560.5 595.5,560.1 596.7,559.7 597.8,559.3 599.0,558.8 600.2,558.4 601.3,558.0 602.5,557.6 603.7,557.2 604.8,556.8 606.0,556.4 607.2,556.0 608.3,555.6 609.5,555.1 610.7,554.7 611.8,554.3 613.0,553.9 614.2,553.5 615.3,553.1 616.5,552.8 617.7,552.4 618.8,552.0 620.0,551.6 621.2,551.2 622.3,550.8 623.5,550.4 624.7,550.0 625.8,549.6 627.0,549.3 628.2,548.9 629.3,548.5 630.5,548.1 631.7,547.7 632.8,547.4 634.0,547.0 635.2,546.6 636.3,546.2 637.5,545.9 638.7,545.5 639.8,545.1 641.0,544.7 642.2,544.5 643.3,544.3 644.5,544.1 645.7,543.9 646.8,543.7 648.0,543.5 649.2,543.3 650.3,543.1 651.5,542.9 652.7,542.6 653.8,542.4 655.0,542.2 656.2,542.0 657.3,541.8 658.5,541.5 659.7,541.3 660.8,541.1 662.0,540.8 663.2,540.6 664.3,540.4 665.5,540.1 666.7,539.9 667.8,539.7 669.0,539.4 670.2,539.2 671.3,539.0 672.5,538.7 673.7,538.5 674.8,538.2 676.0,538.0 677.2,537.7 678.3,537.5 679.5,537.2 680.7,537.0 681.8,536.7 683.0,536.5 684.2,536.2 685.3,536.0 686.5,535.7 687.7,535.5 688.8,535.2 690.0,534.9 691.2,534.5 692.3,534.0 693.5,533.5 694.7,533.1 695.8,532.6 697.0,532.2 698.2,531.7 699.3,531.3 700.5,530.8 701.7,530.4 702.8,529.9 704.0,529.5 705.2,529.1 706.3,528.7 707.5,528.2 708.7,527.8 709.8,527.4 711.0,527.0 712.2,526.6 713.3,526.2 714.5,525.8 715.7,525.4 716.8,525.0 718.0,524.6 719.2,524.2 720.3,523.8 721.5,523.4 722.7,523.1 723.8,522.7 725.0,522.3 726.2,521.9 727.3,521.6 728.5,521.2 729.7,520.8 730.8,520.5 732.0,520.1 733.2,519.8 734.3,519.4 735.5,519.0 736.7,518.7 737.8,518.4 739.0,518.0 740.2,517.8 741.3,517.7 742.5,517.5 743.7,517.3 744.8,517.2 746.0,517.0 747.2,516.8 748.3,516.7 749.5,516.5 750.7,516.3 751.8,516.1 753.0,516.0 754.2,515.8 755.3,515.6 756.5,515.4 757.7,515.2 758.8,515.1 760.0,514.9 761.2,514.7 762.3,514.5 763.5,514.3 764.7,514.1 765.8,513.9 767.0,513.8 768.2,513.6 769.3,513.4 770.5,513.2 771.7,513.0 772.8,512.8 774.0,512.6 775.2,512.4 776.3,512.2 777.5,512.0 778.7,511.8 779.8,511.6 781.0,511.4 782.2,511.2 783.3,511.0 784.5,510.8 785.7,510.6 786.8,510.4 788.0,510.2 789.2,509.8 790.3,509.4 791.5,509.0 792.7,508.7 793.8,508.3 795.0,507.9 796.2,507.5 797.3,507.1 798.5,506.8 799.7,506.4 800.8,506.1 802.0,505.7 803.2,505.4 804.3,505.0 805.5,504.7 806.7,504.3 807.8,504.0 809.0,503.7 810.2,503.3 811.3,503.0 812.5,502.7 813.7,502.4 814.8,502.1 816.0,501.8 817.2,501.5 818.3,501.2 819.5,500.9 820.7,500.6 821.8,500.3 823.0,500.0 824.2,499.7 825.3,499.5 826.5,499.2 827.7,498.9 828.8,498.6 830.0,498.4 831.2,498.1 832.3,497.8 833.5,497.6 834.7,497.3 835.8,497.1 837.0,496.8 838.2,496.7 839.3,496.6 840.5,496.5 841.7,496.4 842.8,496.3 844.0,496.2 845.2,496.1 846.3,496.0 847.5,495.9 848.7,495.8 849.8,495.7 851.0,495.6 852.2,495.5 853.3,495.4 854.5,495.3 855.7,495.2 856.8,495.1 858.0,495.0 859.2,494.9 860.3,494.8 861.5,494.7 862.7,494.6 863.8,494.4 865.0,494.3 866.2,494.2 867.3,494.1 868.5,494.0 869.7,493.9 870.8,493.8 872.0,493.7 873.2,493.5 874.3,493.4 875.5,493.3 876.7,493.2 877.8,493.1 879.0,493.0 880.2,492.8 881.3,492.7 882.5,492.6 883.7,492.5 884.8,492.4 886.0,492.2 887.2,491.9 888.3,491.6 889.5,491.3 890.7,491.1 891.8,490.8 893.0,490.5 894.2,490.2 895.3,490.0 896.5,489.7 897.7,489.4 898.8,489.2 900.0,488.9 901.2,488.7 902.3,488.4 903.5,488.2 904.7,488.0 905.8,487.7 907.0,487.5 908.2,487.3 909.3,487.0 910.5,486.8 911.7,486.6 912.8,486.4 914.0,486.2 915.2,486.0 916.3,485.8 917.5,485.6 918.7,485.4 919.8,485.2 921.0,485.0 922.2,484.8 923.3,484.6 924.5,484.4 925.7,484.2 926.8,484.0 928.0,483.8 929.2,483.6 930.3,483.5 931.5,483.3 932.7,483.1 933.8,482.9 935.0,482.8 936.2,482.7 937.3,482.7 938.5,482.7 939.7,482.7 940.8,482.6 942.0,482.6 943.2,482.5 944.3,482.5 945.5,482.5 946.7,482.4 947.8,482.4 949.0,482.4 950.2,482.3 951.3,482.3 952.5,482.2 953.7,482.2 954.8,482.1 956.0,482.1 957.2,482.1 958.3,482.0 959.5,482.0 960.7,481.9 961.8,481.9 963.0,481.8 964.2,481.8 965.3,481.7 966.5,481.7 967.7,481.6 968.8,481.6 970.0,481.5 971.2,481.5 972.3,481.4 973.5,481.3 974.7,481.3 975.8,481.2 977.0,481.2 978.2,481.1 979.3,481.1 980.5,481.0 981.7,481.0 982.8,480.9 984.0,480.8 985.2,480.6 986.3,480.4 987.5,480.2 988.7,480.0 989.8,479.8 991.0,479.6 992.2,479.4 993.3,479.2 994.5,479.0 995.7,478.8 996.8,478.7 998.0,478.5 999.2,478.3 1000.3,478.2 1001.5,478.0 1002.7,477.8 1003.8,477.7 1005.0,477.5 1006.2,477.4 1007.3,477.2 1008.5,477.0 1009.7,476.9 1010.8,476.8 1012.0,476.6" fill="none" stroke="#7c3aed" stroke-width="2.0" />
</svg>
